<svg xmlns="http://www.w3.org/2000/svg" width="137.994285714mm" height="46.7942857143mm" viewBox="-2.14 -30.94 137.994285714 46.7942857143">
<metadata>Hershey fonts data (./hershey-fonts/*)

Source: http://emergent.unpythonic.net/software/hershey

------------------------------------------------------------------------------

USE RESTRICTION:
	This distribution of the Hershey Fonts may be used by anyone for
	any purpose, commercial or otherwise, providing that:
		1. The following acknowledgements must be distributed with
			the font data:
			- The Hershey Fonts were originally created by Dr.
				A. V. Hershey while working at the U. S.
				National Bureau of Standards.
			- The format of the Font data in this distribution
				was originally created by
					James Hurt
					Cognition, Inc.
					900 Technology Park Drive
					Billerica, MA 01821
					(mit-eddie!ci-dandelion!hurt)
		2. The font data in this distribution may be converted into
			any other format *EXCEPT* the format distributed by
			the U.S. NTIS (which organization holds the rights
			to the distribution and use of the font data in that
			particular format). Not that anybody would really
			*want* to use their format... each point is described
			in eight bytes as &quot;xxx yyy:&quot;, where xxx and yyy are
			the coordinate values as ASCII numbers.

------------------------------------------------------------------------------

The format of the files is described as follows:

The structure is bascially as follows: each character consists of a number
1-&gt;4000 (not all used) in column 0:4, the number of vertices in columns 5:7,
the left hand position in column 8, the right hand position in column 9, and
finally the vertices in single character pairs. All coordinates are given
relative to the ascii value of &#x27;R&#x27;. If the coordinate value is &quot; R&quot; that
indicates a pen up operation.

As an example consider the 8th symbol

8 9MWOMOV RUMUV ROQUQ

It has 9 coordinate pairs (this includes the left and right position).
The left position is &#x27;M&#x27; - &#x27;R&#x27; = -5
The right position is &#x27;W&#x27; - &#x27;R&#x27; = 5
The first coordinate is &quot;OM&quot; = (-3,-5)
The second coordinate is &quot;OV&quot; = (-3,4)
Raise the pen &quot; R&quot;
Move to &quot;UM&quot; = (3,-5)
Draw to &quot;UV&quot; = (3,4)
Raise the pen &quot; R&quot;
Move to &quot;OQ&quot; = (-3,-1)
Draw to &quot;UQ&quot; = (3,-1)
Drawing this out on a piece of paper will reveal it represents an &#x27;H&#x27;.

</metadata>
  <title>PlotFont</title>
  <path data-glyph="P" fill="none" stroke="black" stroke-linecap="round" stroke-linejoin="round" stroke-width="0.28" d="M 14.8571428571 -21.7142857143 L 16 -20.5714285714 L 16 -17.1428571429 L 14.8571428571 -12.5714285714 L 13.7142857143 -9.14285714286 L 12.5714285714 -6.85714285714 L 10.2857142857 -3.42857142857 L 8 -1.14285714286 L 5.71428571429 0 L 4.57142857143 0 L 3.42857142857 -1.14285714286 L 3.42857142857 -4.57142857143 L 4.57142857143 -10.2857142857 L 5.71428571429 -13.7142857143 L 6.85714285714 -16 L 9.14285714286 -19.4285714286 L 11.4285714286 -21.7142857143 L 13.7142857143 -22.8571428571 L 17.1428571429 -24 L 22.8571428571 -24 L 25.1428571429 -22.8571428571 L 26.2857142857 -21.7142857143 L 27.4285714286 -19.4285714286 L 27.4285714286 -16 L 26.2857142857 -13.7142857143 L 25.1428571429 -12.5714285714 L 22.8571428571 -11.4285714286 L 19.4285714286 -11.4285714286 L 17.1428571429 -12.5714285714 L 16 -13.7142857143"/>
  <path data-glyph="l" fill="none" stroke="black" stroke-linecap="round" stroke-linejoin="round" stroke-width="0.28" d="M 28.5714285714 -5.71428571429 L 30.8571428571 -9.14285714286 L 34.2857142857 -14.8571428571 L 35.4285714286 -17.1428571429 L 36.5714285714 -20.5714285714 L 36.5714285714 -22.8571428571 L 35.4285714286 -24 L 33.1428571429 -22.8571428571 L 32 -20.5714285714 L 30.8571428571 -16 L 29.7142857143 -8 L 29.7142857143 -1.14285714286 L 30.8571428571 0 L 32 0 L 34.2857142857 -1.14285714286 L 35.4285714286 -2.28571428571 L 37.7142857143 -5.71428571429"/>
  <path data-glyph="o" fill="none" stroke="black" stroke-linecap="round" stroke-linejoin="round" stroke-width="0.28" d="M 44.5714285714 -10.2857142857 L 42.2857142857 -10.2857142857 L 40 -9.14285714286 L 38.8571428571 -8 L 37.7142857143 -5.71428571429 L 37.7142857143 -3.42857142857 L 38.8571428571 -1.14285714286 L 41.1428571429 0 L 43.4285714286 0 L 45.7142857143 -1.14285714286 L 46.8571428571 -2.28571428571 L 48 -4.57142857143 L 48 -6.85714285714 L 46.8571428571 -9.14285714286 L 44.5714285714 -10.2857142857 L 43.4285714286 -9.14285714286 L 43.4285714286 -6.85714285714 L 44.5714285714 -4.57142857143 L 46.8571428571 -3.42857142857 L 50.2857142857 -3.42857142857 L 52.5714285714 -4.57142857143 L 53.7142857143 -5.71428571429"/>
  <path data-glyph="t" fill="none" stroke="black" stroke-linecap="round" stroke-linejoin="round" stroke-width="0.28" d="M 53.7142857143 -5.71428571429 L 56 -9.14285714286 L 58.2857142857 -13.7142857143"/>
  <path data-glyph="t" fill="none" stroke="black" stroke-linecap="round" stroke-linejoin="round" stroke-width="0.28" d="M 61.7142857143 -24 L 54.8571428571 -3.42857142857 L 54.8571428571 -1.14285714286 L 56 0 L 58.2857142857 0 L 60.5714285714 -1.14285714286 L 61.7142857143 -2.28571428571 L 64 -5.71428571429"/>
  <path data-glyph="t" fill="none" stroke="black" stroke-linecap="round" stroke-linejoin="round" stroke-width="0.28" d="M 54.8571428571 -14.8571428571 L 62.8571428571 -14.8571428571"/>
  <path data-glyph="F" fill="none" stroke="black" stroke-linecap="round" stroke-linejoin="round" stroke-width="0.28" d="M 75.4285714286 -17.1428571429 L 73.1428571429 -17.1428571429 L 70.8571428571 -18.2857142857 L 69.7142857143 -20.5714285714 L 70.8571428571 -22.8571428571 L 74.2857142857 -24 L 77.7142857143 -24 L 82.2857142857 -22.8571428571 L 85.7142857143 -22.8571428571 L 88 -24"/>
  <path data-glyph="F" fill="none" stroke="black" stroke-linecap="round" stroke-linejoin="round" stroke-width="0.28" d="M 82.2857142857 -22.8571428571 L 80 -14.8571428571 L 77.7142857143 -8 L 75.4285714286 -3.42857142857 L 73.1428571429 -1.14285714286 L 70.8571428571 0 L 68.5714285714 0 L 66.2857142857 -1.14285714286 L 65.1428571429 -3.42857142857 L 65.1428571429 -5.71428571429 L 66.2857142857 -6.85714285714 L 68.5714285714 -6.85714285714 L 70.8571428571 -5.71428571429"/>
  <path data-glyph="F" fill="none" stroke="black" stroke-linecap="round" stroke-linejoin="round" stroke-width="0.28" d="M 74.2857142857 -12.5714285714 L 84.5714285714 -12.5714285714"/>
  <path data-glyph="o" fill="none" stroke="black" stroke-linecap="round" stroke-linejoin="round" stroke-width="0.28" d="M 93.7142857143 -10.2857142857 L 91.4285714286 -10.2857142857 L 89.1428571429 -9.14285714286 L 88 -8 L 86.8571428571 -5.71428571429 L 86.8571428571 -3.42857142857 L 88 -1.14285714286 L 90.2857142857 0 L 92.5714285714 0 L 94.8571428571 -1.14285714286 L 96 -2.28571428571 L 97.1428571429 -4.57142857143 L 97.1428571429 -6.85714285714 L 96 -9.14285714286 L 93.7142857143 -10.2857142857 L 92.5714285714 -9.14285714286 L 92.5714285714 -6.85714285714 L 93.7142857143 -4.57142857143 L 96 -3.42857142857 L 99.4285714286 -3.42857142857 L 101.714285714 -4.57142857143 L 102.857142857 -5.71428571429"/>
  <path data-glyph="n" fill="none" stroke="black" stroke-linecap="round" stroke-linejoin="round" stroke-width="0.28" d="M 102.857142857 -5.71428571429 L 105.142857143 -9.14285714286 L 107.428571429 -10.2857142857 L 108.571428571 -9.14285714286 L 108.571428571 -8 L 107.428571429 -3.42857142857 L 106.285714286 0"/>
  <path data-glyph="n" fill="none" stroke="black" stroke-linecap="round" stroke-linejoin="round" stroke-width="0.28" d="M 107.428571429 -3.42857142857 L 108.571428571 -5.71428571429 L 110.857142857 -9.14285714286 L 113.142857143 -10.2857142857 L 115.428571429 -10.2857142857 L 116.571428571 -9.14285714286 L 116.571428571 -6.85714285714 L 115.428571429 -3.42857142857 L 115.428571429 -1.14285714286 L 116.571428571 0 L 117.714285714 0 L 120 -1.14285714286 L 121.142857143 -2.28571428571 L 123.428571429 -5.71428571429"/>
  <path data-glyph="t" fill="none" stroke="black" stroke-linecap="round" stroke-linejoin="round" stroke-width="0.28" d="M 123.428571429 -5.71428571429 L 125.714285714 -9.14285714286 L 128 -13.7142857143"/>
  <path data-glyph="t" fill="none" stroke="black" stroke-linecap="round" stroke-linejoin="round" stroke-width="0.28" d="M 131.428571429 -24 L 124.571428571 -3.42857142857 L 124.571428571 -1.14285714286 L 125.714285714 0 L 128 0 L 130.285714286 -1.14285714286 L 131.428571429 -2.28571428571 L 133.714285714 -5.71428571429"/>
  <path data-glyph="t" fill="none" stroke="black" stroke-linecap="round" stroke-linejoin="round" stroke-width="0.28" d="M 124.571428571 -14.8571428571 L 132.571428571 -14.8571428571"/>
</svg>
