<svg xmlns="http://www.w3.org/2000/svg" width="199.728571429mm" height="60.3mm" viewBox="-2.15 -11.75 199.728571429 60.3">
  <metadata id="hershey-redistribution-terms"><![CDATA[Hershey fonts data (./hershey-fonts/*)

Source: http://emergent.unpythonic.net/software/hershey

------------------------------------------------------------------------------

USE RESTRICTION:
	This distribution of the Hershey Fonts may be used by anyone for
	any purpose, commercial or otherwise, providing that:
		1. The following acknowledgements must be distributed with
			the font data:
			- The Hershey Fonts were originally created by Dr.
				A. V. Hershey while working at the U. S.
				National Bureau of Standards.
			- The format of the Font data in this distribution
				was originally created by
					James Hurt
					Cognition, Inc.
					900 Technology Park Drive
					Billerica, MA 01821
					(mit-eddie!ci-dandelion!hurt)
		2. The font data in this distribution may be converted into
			any other format *EXCEPT* the format distributed by
			the U.S. NTIS (which organization holds the rights
			to the distribution and use of the font data in that
			particular format). Not that anybody would really
			*want* to use their format... each point is described
			in eight bytes as "xxx yyy:", where xxx and yyy are
			the coordinate values as ASCII numbers.

------------------------------------------------------------------------------

The format of the files is described as follows:

The structure is bascially as follows: each character consists of a number
1->4000 (not all used) in column 0:4, the number of vertices in columns 5:7,
the left hand position in column 8, the right hand position in column 9, and
finally the vertices in single character pairs. All coordinates are given
relative to the ascii value of 'R'. If the coordinate value is " R" that
indicates a pen up operation.

As an example consider the 8th symbol

8 9MWOMOV RUMUV ROQUQ

It has 9 coordinate pairs (this includes the left and right position).
The left position is 'M' - 'R' = -5
The right position is 'W' - 'R' = 5
The first coordinate is "OM" = (-3,-5)
The second coordinate is "OV" = (-3,4)
Raise the pen " R"
Move to "UM" = (3,-5)
Draw to "UV" = (3,4)
Raise the pen " R"
Move to "OQ" = (-3,-1)
Draw to "UQ" = (3,-1)
Drawing this out on a piece of paper will reveal it represents an 'H'.

]]></metadata>
  <title>Hershey Roman Simplex
ABCDEFGHIJKLMNOPQRSTUVWXYZ
abcdefghijklmnopqrstuvwxyz
0123456789 !? &amp; @ + =</title>
  <path data-glyph="H" fill="none" stroke="black" stroke-linecap="round" stroke-linejoin="round" stroke-width="0.3" d="M 1.52380952381 -8 L 1.52380952381 0"/>
  <path data-glyph="H" fill="none" stroke="black" stroke-linecap="round" stroke-linejoin="round" stroke-width="0.3" d="M 6.85714285714 -8 L 6.85714285714 0"/>
  <path data-glyph="H" fill="none" stroke="black" stroke-linecap="round" stroke-linejoin="round" stroke-width="0.3" d="M 1.52380952381 -4.19047619048 L 6.85714285714 -4.19047619048"/>
  <path data-glyph="e" fill="none" stroke="black" stroke-linecap="round" stroke-linejoin="round" stroke-width="0.3" d="M 9.52380952381 -3.04761904762 L 14.0952380952 -3.04761904762 L 14.0952380952 -3.80952380952 L 13.7142857143 -4.57142857143 L 13.3333333333 -4.95238095238 L 12.5714285714 -5.33333333333 L 11.4285714286 -5.33333333333 L 10.6666666667 -4.95238095238 L 9.90476190476 -4.19047619048 L 9.52380952381 -3.04761904762 L 9.52380952381 -2.28571428571 L 9.90476190476 -1.14285714286 L 10.6666666667 -0.380952380952 L 11.4285714286 0 L 12.5714285714 0 L 13.3333333333 -0.380952380952 L 14.0952380952 -1.14285714286"/>
  <path data-glyph="r" fill="none" stroke="black" stroke-linecap="round" stroke-linejoin="round" stroke-width="0.3" d="M 16.7619047619 -5.33333333333 L 16.7619047619 0"/>
  <path data-glyph="r" fill="none" stroke="black" stroke-linecap="round" stroke-linejoin="round" stroke-width="0.3" d="M 16.7619047619 -3.04761904762 L 17.1428571429 -4.19047619048 L 17.9047619048 -4.95238095238 L 18.6666666667 -5.33333333333 L 19.8095238095 -5.33333333333"/>
  <path data-glyph="s" fill="none" stroke="black" stroke-linecap="round" stroke-linejoin="round" stroke-width="0.3" d="M 25.5238095238 -4.19047619048 L 25.1428571429 -4.95238095238 L 24 -5.33333333333 L 22.8571428571 -5.33333333333 L 21.7142857143 -4.95238095238 L 21.3333333333 -4.19047619048 L 21.7142857143 -3.42857142857 L 22.4761904762 -3.04761904762 L 24.380952381 -2.66666666667 L 25.1428571429 -2.28571428571 L 25.5238095238 -1.52380952381 L 25.5238095238 -1.14285714286 L 25.1428571429 -0.380952380952 L 24 0 L 22.8571428571 0 L 21.7142857143 -0.380952380952 L 21.3333333333 -1.14285714286"/>
  <path data-glyph="h" fill="none" stroke="black" stroke-linecap="round" stroke-linejoin="round" stroke-width="0.3" d="M 28.1904761905 -8 L 28.1904761905 0"/>
  <path data-glyph="h" fill="none" stroke="black" stroke-linecap="round" stroke-linejoin="round" stroke-width="0.3" d="M 28.1904761905 -3.80952380952 L 29.3333333333 -4.95238095238 L 30.0952380952 -5.33333333333 L 31.2380952381 -5.33333333333 L 32 -4.95238095238 L 32.380952381 -3.80952380952 L 32.380952381 0"/>
  <path data-glyph="e" fill="none" stroke="black" stroke-linecap="round" stroke-linejoin="round" stroke-width="0.3" d="M 35.0476190476 -3.04761904762 L 39.619047619 -3.04761904762 L 39.619047619 -3.80952380952 L 39.2380952381 -4.57142857143 L 38.8571428571 -4.95238095238 L 38.0952380952 -5.33333333333 L 36.9523809524 -5.33333333333 L 36.1904761905 -4.95238095238 L 35.4285714286 -4.19047619048 L 35.0476190476 -3.04761904762 L 35.0476190476 -2.28571428571 L 35.4285714286 -1.14285714286 L 36.1904761905 -0.380952380952 L 36.9523809524 0 L 38.0952380952 0 L 38.8571428571 -0.380952380952 L 39.619047619 -1.14285714286"/>
  <path data-glyph="y" fill="none" stroke="black" stroke-linecap="round" stroke-linejoin="round" stroke-width="0.3" d="M 41.5238095238 -5.33333333333 L 43.8095238095 0"/>
  <path data-glyph="y" fill="none" stroke="black" stroke-linecap="round" stroke-linejoin="round" stroke-width="0.3" d="M 46.0952380952 -5.33333333333 L 43.8095238095 0 L 43.0476190476 1.52380952381 L 42.2857142857 2.28571428571 L 41.5238095238 2.66666666667 L 41.1428571429 2.66666666667"/>
  <path data-glyph="R" fill="none" stroke="black" stroke-linecap="round" stroke-linejoin="round" stroke-width="0.3" d="M 54.4761904762 -8 L 54.4761904762 0"/>
  <path data-glyph="R" fill="none" stroke="black" stroke-linecap="round" stroke-linejoin="round" stroke-width="0.3" d="M 54.4761904762 -8 L 57.9047619048 -8 L 59.0476190476 -7.61904761905 L 59.4285714286 -7.2380952381 L 59.8095238095 -6.47619047619 L 59.8095238095 -5.71428571429 L 59.4285714286 -4.95238095238 L 59.0476190476 -4.57142857143 L 57.9047619048 -4.19047619048 L 54.4761904762 -4.19047619048"/>
  <path data-glyph="R" fill="none" stroke="black" stroke-linecap="round" stroke-linejoin="round" stroke-width="0.3" d="M 57.1428571429 -4.19047619048 L 59.8095238095 0"/>
  <path data-glyph="o" fill="none" stroke="black" stroke-linecap="round" stroke-linejoin="round" stroke-width="0.3" d="M 64 -5.33333333333 L 63.2380952381 -4.95238095238 L 62.4761904762 -4.19047619048 L 62.0952380952 -3.04761904762 L 62.0952380952 -2.28571428571 L 62.4761904762 -1.14285714286 L 63.2380952381 -0.380952380952 L 64 0 L 65.1428571429 0 L 65.9047619048 -0.380952380952 L 66.6666666667 -1.14285714286 L 67.0476190476 -2.28571428571 L 67.0476190476 -3.04761904762 L 66.6666666667 -4.19047619048 L 65.9047619048 -4.95238095238 L 65.1428571429 -5.33333333333 L 64 -5.33333333333"/>
  <path data-glyph="m" fill="none" stroke="black" stroke-linecap="round" stroke-linejoin="round" stroke-width="0.3" d="M 69.7142857143 -5.33333333333 L 69.7142857143 0"/>
  <path data-glyph="m" fill="none" stroke="black" stroke-linecap="round" stroke-linejoin="round" stroke-width="0.3" d="M 69.7142857143 -3.80952380952 L 70.8571428571 -4.95238095238 L 71.619047619 -5.33333333333 L 72.7619047619 -5.33333333333 L 73.5238095238 -4.95238095238 L 73.9047619048 -3.80952380952 L 73.9047619048 0"/>
  <path data-glyph="m" fill="none" stroke="black" stroke-linecap="round" stroke-linejoin="round" stroke-width="0.3" d="M 73.9047619048 -3.80952380952 L 75.0476190476 -4.95238095238 L 75.8095238095 -5.33333333333 L 76.9523809524 -5.33333333333 L 77.7142857143 -4.95238095238 L 78.0952380952 -3.80952380952 L 78.0952380952 0"/>
  <path data-glyph="a" fill="none" stroke="black" stroke-linecap="round" stroke-linejoin="round" stroke-width="0.3" d="M 85.3333333333 -5.33333333333 L 85.3333333333 0"/>
  <path data-glyph="a" fill="none" stroke="black" stroke-linecap="round" stroke-linejoin="round" stroke-width="0.3" d="M 85.3333333333 -4.19047619048 L 84.5714285714 -4.95238095238 L 83.8095238095 -5.33333333333 L 82.6666666667 -5.33333333333 L 81.9047619048 -4.95238095238 L 81.1428571429 -4.19047619048 L 80.7619047619 -3.04761904762 L 80.7619047619 -2.28571428571 L 81.1428571429 -1.14285714286 L 81.9047619048 -0.380952380952 L 82.6666666667 0 L 83.8095238095 0 L 84.5714285714 -0.380952380952 L 85.3333333333 -1.14285714286"/>
  <path data-glyph="n" fill="none" stroke="black" stroke-linecap="round" stroke-linejoin="round" stroke-width="0.3" d="M 88.380952381 -5.33333333333 L 88.380952381 0"/>
  <path data-glyph="n" fill="none" stroke="black" stroke-linecap="round" stroke-linejoin="round" stroke-width="0.3" d="M 88.380952381 -3.80952380952 L 89.5238095238 -4.95238095238 L 90.2857142857 -5.33333333333 L 91.4285714286 -5.33333333333 L 92.1904761905 -4.95238095238 L 92.5714285714 -3.80952380952 L 92.5714285714 0"/>
  <path data-glyph="S" fill="none" stroke="black" stroke-linecap="round" stroke-linejoin="round" stroke-width="0.3" d="M 106.666666667 -6.85714285714 L 105.904761905 -7.61904761905 L 104.761904762 -8 L 103.238095238 -8 L 102.095238095 -7.61904761905 L 101.333333333 -6.85714285714 L 101.333333333 -6.09523809524 L 101.714285714 -5.33333333333 L 102.095238095 -4.95238095238 L 102.857142857 -4.57142857143 L 105.142857143 -3.80952380952 L 105.904761905 -3.42857142857 L 106.285714286 -3.04761904762 L 106.666666667 -2.28571428571 L 106.666666667 -1.14285714286 L 105.904761905 -0.380952380952 L 104.761904762 0 L 103.238095238 0 L 102.095238095 -0.380952380952 L 101.333333333 -1.14285714286"/>
  <path data-glyph="i" fill="none" stroke="black" stroke-linecap="round" stroke-linejoin="round" stroke-width="0.3" d="M 108.952380952 -8 L 109.333333333 -7.61904761905 L 109.714285714 -8 L 109.333333333 -8.38095238095 L 108.952380952 -8"/>
  <path data-glyph="i" fill="none" stroke="black" stroke-linecap="round" stroke-linejoin="round" stroke-width="0.3" d="M 109.333333333 -5.33333333333 L 109.333333333 0"/>
  <path data-glyph="m" fill="none" stroke="black" stroke-linecap="round" stroke-linejoin="round" stroke-width="0.3" d="M 112.380952381 -5.33333333333 L 112.380952381 0"/>
  <path data-glyph="m" fill="none" stroke="black" stroke-linecap="round" stroke-linejoin="round" stroke-width="0.3" d="M 112.380952381 -3.80952380952 L 113.523809524 -4.95238095238 L 114.285714286 -5.33333333333 L 115.428571429 -5.33333333333 L 116.19047619 -4.95238095238 L 116.571428571 -3.80952380952 L 116.571428571 0"/>
  <path data-glyph="m" fill="none" stroke="black" stroke-linecap="round" stroke-linejoin="round" stroke-width="0.3" d="M 116.571428571 -3.80952380952 L 117.714285714 -4.95238095238 L 118.476190476 -5.33333333333 L 119.619047619 -5.33333333333 L 120.380952381 -4.95238095238 L 120.761904762 -3.80952380952 L 120.761904762 0"/>
  <path data-glyph="p" fill="none" stroke="black" stroke-linecap="round" stroke-linejoin="round" stroke-width="0.3" d="M 123.80952381 -5.33333333333 L 123.80952381 2.66666666667"/>
  <path data-glyph="p" fill="none" stroke="black" stroke-linecap="round" stroke-linejoin="round" stroke-width="0.3" d="M 123.80952381 -4.19047619048 L 124.571428571 -4.95238095238 L 125.333333333 -5.33333333333 L 126.476190476 -5.33333333333 L 127.238095238 -4.95238095238 L 128 -4.19047619048 L 128.380952381 -3.04761904762 L 128.380952381 -2.28571428571 L 128 -1.14285714286 L 127.238095238 -0.380952380952 L 126.476190476 0 L 125.333333333 0 L 124.571428571 -0.380952380952 L 123.80952381 -1.14285714286"/>
  <path data-glyph="l" fill="none" stroke="black" stroke-linecap="round" stroke-linejoin="round" stroke-width="0.3" d="M 131.047619048 -8 L 131.047619048 0"/>
  <path data-glyph="e" fill="none" stroke="black" stroke-linecap="round" stroke-linejoin="round" stroke-width="0.3" d="M 133.714285714 -3.04761904762 L 138.285714286 -3.04761904762 L 138.285714286 -3.80952380952 L 137.904761905 -4.57142857143 L 137.523809524 -4.95238095238 L 136.761904762 -5.33333333333 L 135.619047619 -5.33333333333 L 134.857142857 -4.95238095238 L 134.095238095 -4.19047619048 L 133.714285714 -3.04761904762 L 133.714285714 -2.28571428571 L 134.095238095 -1.14285714286 L 134.857142857 -0.380952380952 L 135.619047619 0 L 136.761904762 0 L 137.523809524 -0.380952380952 L 138.285714286 -1.14285714286"/>
  <path data-glyph="x" fill="none" stroke="black" stroke-linecap="round" stroke-linejoin="round" stroke-width="0.3" d="M 140.571428571 -5.33333333333 L 144.761904762 0"/>
  <path data-glyph="x" fill="none" stroke="black" stroke-linecap="round" stroke-linejoin="round" stroke-width="0.3" d="M 144.761904762 -5.33333333333 L 140.571428571 0"/>
  <path data-glyph="A" fill="none" stroke="black" stroke-linecap="round" stroke-linejoin="round" stroke-width="0.3" d="M 3.42857142857 6.4 L 0.380952380952 14.4"/>
  <path data-glyph="A" fill="none" stroke="black" stroke-linecap="round" stroke-linejoin="round" stroke-width="0.3" d="M 3.42857142857 6.4 L 6.47619047619 14.4"/>
  <path data-glyph="A" fill="none" stroke="black" stroke-linecap="round" stroke-linejoin="round" stroke-width="0.3" d="M 1.52380952381 11.7333333333 L 5.33333333333 11.7333333333"/>
  <path data-glyph="B" fill="none" stroke="black" stroke-linecap="round" stroke-linejoin="round" stroke-width="0.3" d="M 8.38095238095 6.4 L 8.38095238095 14.4"/>
  <path data-glyph="B" fill="none" stroke="black" stroke-linecap="round" stroke-linejoin="round" stroke-width="0.3" d="M 8.38095238095 6.4 L 11.8095238095 6.4 L 12.9523809524 6.78095238095 L 13.3333333333 7.1619047619 L 13.7142857143 7.92380952381 L 13.7142857143 8.68571428571 L 13.3333333333 9.44761904762 L 12.9523809524 9.82857142857 L 11.8095238095 10.2095238095"/>
  <path data-glyph="B" fill="none" stroke="black" stroke-linecap="round" stroke-linejoin="round" stroke-width="0.3" d="M 8.38095238095 10.2095238095 L 11.8095238095 10.2095238095 L 12.9523809524 10.5904761905 L 13.3333333333 10.9714285714 L 13.7142857143 11.7333333333 L 13.7142857143 12.8761904762 L 13.3333333333 13.6380952381 L 12.9523809524 14.019047619 L 11.8095238095 14.4 L 8.38095238095 14.4"/>
  <path data-glyph="C" fill="none" stroke="black" stroke-linecap="round" stroke-linejoin="round" stroke-width="0.3" d="M 21.7142857143 8.30476190476 L 21.3333333333 7.54285714286 L 20.5714285714 6.78095238095 L 19.8095238095 6.4 L 18.2857142857 6.4 L 17.5238095238 6.78095238095 L 16.7619047619 7.54285714286 L 16.380952381 8.30476190476 L 16 9.44761904762 L 16 11.3523809524 L 16.380952381 12.4952380952 L 16.7619047619 13.2571428571 L 17.5238095238 14.019047619 L 18.2857142857 14.4 L 19.8095238095 14.4 L 20.5714285714 14.019047619 L 21.3333333333 13.2571428571 L 21.7142857143 12.4952380952"/>
  <path data-glyph="D" fill="none" stroke="black" stroke-linecap="round" stroke-linejoin="round" stroke-width="0.3" d="M 24.380952381 6.4 L 24.380952381 14.4"/>
  <path data-glyph="D" fill="none" stroke="black" stroke-linecap="round" stroke-linejoin="round" stroke-width="0.3" d="M 24.380952381 6.4 L 27.0476190476 6.4 L 28.1904761905 6.78095238095 L 28.9523809524 7.54285714286 L 29.3333333333 8.30476190476 L 29.7142857143 9.44761904762 L 29.7142857143 11.3523809524 L 29.3333333333 12.4952380952 L 28.9523809524 13.2571428571 L 28.1904761905 14.019047619 L 27.0476190476 14.4 L 24.380952381 14.4"/>
  <path data-glyph="E" fill="none" stroke="black" stroke-linecap="round" stroke-linejoin="round" stroke-width="0.3" d="M 32.380952381 6.4 L 32.380952381 14.4"/>
  <path data-glyph="E" fill="none" stroke="black" stroke-linecap="round" stroke-linejoin="round" stroke-width="0.3" d="M 32.380952381 6.4 L 37.3333333333 6.4"/>
  <path data-glyph="E" fill="none" stroke="black" stroke-linecap="round" stroke-linejoin="round" stroke-width="0.3" d="M 32.380952381 10.2095238095 L 35.4285714286 10.2095238095"/>
  <path data-glyph="E" fill="none" stroke="black" stroke-linecap="round" stroke-linejoin="round" stroke-width="0.3" d="M 32.380952381 14.4 L 37.3333333333 14.4"/>
  <path data-glyph="F" fill="none" stroke="black" stroke-linecap="round" stroke-linejoin="round" stroke-width="0.3" d="M 39.619047619 6.4 L 39.619047619 14.4"/>
  <path data-glyph="F" fill="none" stroke="black" stroke-linecap="round" stroke-linejoin="round" stroke-width="0.3" d="M 39.619047619 6.4 L 44.5714285714 6.4"/>
  <path data-glyph="F" fill="none" stroke="black" stroke-linecap="round" stroke-linejoin="round" stroke-width="0.3" d="M 39.619047619 10.2095238095 L 42.6666666667 10.2095238095"/>
  <path data-glyph="G" fill="none" stroke="black" stroke-linecap="round" stroke-linejoin="round" stroke-width="0.3" d="M 51.8095238095 8.30476190476 L 51.4285714286 7.54285714286 L 50.6666666667 6.78095238095 L 49.9047619048 6.4 L 48.380952381 6.4 L 47.619047619 6.78095238095 L 46.8571428571 7.54285714286 L 46.4761904762 8.30476190476 L 46.0952380952 9.44761904762 L 46.0952380952 11.3523809524 L 46.4761904762 12.4952380952 L 46.8571428571 13.2571428571 L 47.619047619 14.019047619 L 48.380952381 14.4 L 49.9047619048 14.4 L 50.6666666667 14.019047619 L 51.4285714286 13.2571428571 L 51.8095238095 12.4952380952 L 51.8095238095 11.3523809524"/>
  <path data-glyph="G" fill="none" stroke="black" stroke-linecap="round" stroke-linejoin="round" stroke-width="0.3" d="M 49.9047619048 11.3523809524 L 51.8095238095 11.3523809524"/>
  <path data-glyph="H" fill="none" stroke="black" stroke-linecap="round" stroke-linejoin="round" stroke-width="0.3" d="M 54.4761904762 6.4 L 54.4761904762 14.4"/>
  <path data-glyph="H" fill="none" stroke="black" stroke-linecap="round" stroke-linejoin="round" stroke-width="0.3" d="M 59.8095238095 6.4 L 59.8095238095 14.4"/>
  <path data-glyph="H" fill="none" stroke="black" stroke-linecap="round" stroke-linejoin="round" stroke-width="0.3" d="M 54.4761904762 10.2095238095 L 59.8095238095 10.2095238095"/>
  <path data-glyph="I" fill="none" stroke="black" stroke-linecap="round" stroke-linejoin="round" stroke-width="0.3" d="M 62.8571428571 6.4 L 62.8571428571 14.4"/>
  <path data-glyph="J" fill="none" stroke="black" stroke-linecap="round" stroke-linejoin="round" stroke-width="0.3" d="M 68.9523809524 6.4 L 68.9523809524 12.4952380952 L 68.5714285714 13.6380952381 L 68.1904761905 14.019047619 L 67.4285714286 14.4 L 66.6666666667 14.4 L 65.9047619048 14.019047619 L 65.5238095238 13.6380952381 L 65.1428571429 12.4952380952 L 65.1428571429 11.7333333333"/>
  <path data-glyph="K" fill="none" stroke="black" stroke-linecap="round" stroke-linejoin="round" stroke-width="0.3" d="M 72 6.4 L 72 14.4"/>
  <path data-glyph="K" fill="none" stroke="black" stroke-linecap="round" stroke-linejoin="round" stroke-width="0.3" d="M 77.3333333333 6.4 L 72 11.7333333333"/>
  <path data-glyph="K" fill="none" stroke="black" stroke-linecap="round" stroke-linejoin="round" stroke-width="0.3" d="M 73.9047619048 9.82857142857 L 77.3333333333 14.4"/>
  <path data-glyph="L" fill="none" stroke="black" stroke-linecap="round" stroke-linejoin="round" stroke-width="0.3" d="M 80 6.4 L 80 14.4"/>
  <path data-glyph="L" fill="none" stroke="black" stroke-linecap="round" stroke-linejoin="round" stroke-width="0.3" d="M 80 14.4 L 84.5714285714 14.4"/>
  <path data-glyph="M" fill="none" stroke="black" stroke-linecap="round" stroke-linejoin="round" stroke-width="0.3" d="M 86.4761904762 6.4 L 86.4761904762 14.4"/>
  <path data-glyph="M" fill="none" stroke="black" stroke-linecap="round" stroke-linejoin="round" stroke-width="0.3" d="M 86.4761904762 6.4 L 89.5238095238 14.4"/>
  <path data-glyph="M" fill="none" stroke="black" stroke-linecap="round" stroke-linejoin="round" stroke-width="0.3" d="M 92.5714285714 6.4 L 89.5238095238 14.4"/>
  <path data-glyph="M" fill="none" stroke="black" stroke-linecap="round" stroke-linejoin="round" stroke-width="0.3" d="M 92.5714285714 6.4 L 92.5714285714 14.4"/>
  <path data-glyph="N" fill="none" stroke="black" stroke-linecap="round" stroke-linejoin="round" stroke-width="0.3" d="M 95.619047619 6.4 L 95.619047619 14.4"/>
  <path data-glyph="N" fill="none" stroke="black" stroke-linecap="round" stroke-linejoin="round" stroke-width="0.3" d="M 95.619047619 6.4 L 100.952380952 14.4"/>
  <path data-glyph="N" fill="none" stroke="black" stroke-linecap="round" stroke-linejoin="round" stroke-width="0.3" d="M 100.952380952 6.4 L 100.952380952 14.4"/>
  <path data-glyph="O" fill="none" stroke="black" stroke-linecap="round" stroke-linejoin="round" stroke-width="0.3" d="M 105.904761905 6.4 L 105.142857143 6.78095238095 L 104.380952381 7.54285714286 L 104 8.30476190476 L 103.619047619 9.44761904762 L 103.619047619 11.3523809524 L 104 12.4952380952 L 104.380952381 13.2571428571 L 105.142857143 14.019047619 L 105.904761905 14.4 L 107.428571429 14.4 L 108.19047619 14.019047619 L 108.952380952 13.2571428571 L 109.333333333 12.4952380952 L 109.714285714 11.3523809524 L 109.714285714 9.44761904762 L 109.333333333 8.30476190476 L 108.952380952 7.54285714286 L 108.19047619 6.78095238095 L 107.428571429 6.4 L 105.904761905 6.4"/>
  <path data-glyph="P" fill="none" stroke="black" stroke-linecap="round" stroke-linejoin="round" stroke-width="0.3" d="M 112.380952381 6.4 L 112.380952381 14.4"/>
  <path data-glyph="P" fill="none" stroke="black" stroke-linecap="round" stroke-linejoin="round" stroke-width="0.3" d="M 112.380952381 6.4 L 115.80952381 6.4 L 116.952380952 6.78095238095 L 117.333333333 7.1619047619 L 117.714285714 7.92380952381 L 117.714285714 9.06666666667 L 117.333333333 9.82857142857 L 116.952380952 10.2095238095 L 115.80952381 10.5904761905 L 112.380952381 10.5904761905"/>
  <path data-glyph="Q" fill="none" stroke="black" stroke-linecap="round" stroke-linejoin="round" stroke-width="0.3" d="M 122.285714286 6.4 L 121.523809524 6.78095238095 L 120.761904762 7.54285714286 L 120.380952381 8.30476190476 L 120 9.44761904762 L 120 11.3523809524 L 120.380952381 12.4952380952 L 120.761904762 13.2571428571 L 121.523809524 14.019047619 L 122.285714286 14.4 L 123.80952381 14.4 L 124.571428571 14.019047619 L 125.333333333 13.2571428571 L 125.714285714 12.4952380952 L 126.095238095 11.3523809524 L 126.095238095 9.44761904762 L 125.714285714 8.30476190476 L 125.333333333 7.54285714286 L 124.571428571 6.78095238095 L 123.80952381 6.4 L 122.285714286 6.4"/>
  <path data-glyph="Q" fill="none" stroke="black" stroke-linecap="round" stroke-linejoin="round" stroke-width="0.3" d="M 123.428571429 12.8761904762 L 125.714285714 15.1619047619"/>
  <path data-glyph="R" fill="none" stroke="black" stroke-linecap="round" stroke-linejoin="round" stroke-width="0.3" d="M 128.761904762 6.4 L 128.761904762 14.4"/>
  <path data-glyph="R" fill="none" stroke="black" stroke-linecap="round" stroke-linejoin="round" stroke-width="0.3" d="M 128.761904762 6.4 L 132.19047619 6.4 L 133.333333333 6.78095238095 L 133.714285714 7.1619047619 L 134.095238095 7.92380952381 L 134.095238095 8.68571428571 L 133.714285714 9.44761904762 L 133.333333333 9.82857142857 L 132.19047619 10.2095238095 L 128.761904762 10.2095238095"/>
  <path data-glyph="R" fill="none" stroke="black" stroke-linecap="round" stroke-linejoin="round" stroke-width="0.3" d="M 131.428571429 10.2095238095 L 134.095238095 14.4"/>
  <path data-glyph="S" fill="none" stroke="black" stroke-linecap="round" stroke-linejoin="round" stroke-width="0.3" d="M 141.714285714 7.54285714286 L 140.952380952 6.78095238095 L 139.80952381 6.4 L 138.285714286 6.4 L 137.142857143 6.78095238095 L 136.380952381 7.54285714286 L 136.380952381 8.30476190476 L 136.761904762 9.06666666667 L 137.142857143 9.44761904762 L 137.904761905 9.82857142857 L 140.19047619 10.5904761905 L 140.952380952 10.9714285714 L 141.333333333 11.3523809524 L 141.714285714 12.1142857143 L 141.714285714 13.2571428571 L 140.952380952 14.019047619 L 139.80952381 14.4 L 138.285714286 14.4 L 137.142857143 14.019047619 L 136.380952381 13.2571428571"/>
  <path data-glyph="T" fill="none" stroke="black" stroke-linecap="round" stroke-linejoin="round" stroke-width="0.3" d="M 145.904761905 6.4 L 145.904761905 14.4"/>
  <path data-glyph="T" fill="none" stroke="black" stroke-linecap="round" stroke-linejoin="round" stroke-width="0.3" d="M 143.238095238 6.4 L 148.571428571 6.4"/>
  <path data-glyph="U" fill="none" stroke="black" stroke-linecap="round" stroke-linejoin="round" stroke-width="0.3" d="M 150.476190476 6.4 L 150.476190476 12.1142857143 L 150.857142857 13.2571428571 L 151.619047619 14.019047619 L 152.761904762 14.4 L 153.523809524 14.4 L 154.666666667 14.019047619 L 155.428571429 13.2571428571 L 155.80952381 12.1142857143 L 155.80952381 6.4"/>
  <path data-glyph="V" fill="none" stroke="black" stroke-linecap="round" stroke-linejoin="round" stroke-width="0.3" d="M 157.714285714 6.4 L 160.761904762 14.4"/>
  <path data-glyph="V" fill="none" stroke="black" stroke-linecap="round" stroke-linejoin="round" stroke-width="0.3" d="M 163.80952381 6.4 L 160.761904762 14.4"/>
  <path data-glyph="W" fill="none" stroke="black" stroke-linecap="round" stroke-linejoin="round" stroke-width="0.3" d="M 164.952380952 6.4 L 166.857142857 14.4"/>
  <path data-glyph="W" fill="none" stroke="black" stroke-linecap="round" stroke-linejoin="round" stroke-width="0.3" d="M 168.761904762 6.4 L 166.857142857 14.4"/>
  <path data-glyph="W" fill="none" stroke="black" stroke-linecap="round" stroke-linejoin="round" stroke-width="0.3" d="M 168.761904762 6.4 L 170.666666667 14.4"/>
  <path data-glyph="W" fill="none" stroke="black" stroke-linecap="round" stroke-linejoin="round" stroke-width="0.3" d="M 172.571428571 6.4 L 170.666666667 14.4"/>
  <path data-glyph="X" fill="none" stroke="black" stroke-linecap="round" stroke-linejoin="round" stroke-width="0.3" d="M 174.476190476 6.4 L 179.80952381 14.4"/>
  <path data-glyph="X" fill="none" stroke="black" stroke-linecap="round" stroke-linejoin="round" stroke-width="0.3" d="M 179.80952381 6.4 L 174.476190476 14.4"/>
  <path data-glyph="Y" fill="none" stroke="black" stroke-linecap="round" stroke-linejoin="round" stroke-width="0.3" d="M 181.333333333 6.4 L 184.380952381 10.2095238095 L 184.380952381 14.4"/>
  <path data-glyph="Y" fill="none" stroke="black" stroke-linecap="round" stroke-linejoin="round" stroke-width="0.3" d="M 187.428571429 6.4 L 184.380952381 10.2095238095"/>
  <path data-glyph="Z" fill="none" stroke="black" stroke-linecap="round" stroke-linejoin="round" stroke-width="0.3" d="M 194.285714286 6.4 L 188.952380952 14.4"/>
  <path data-glyph="Z" fill="none" stroke="black" stroke-linecap="round" stroke-linejoin="round" stroke-width="0.3" d="M 188.952380952 6.4 L 194.285714286 6.4"/>
  <path data-glyph="Z" fill="none" stroke="black" stroke-linecap="round" stroke-linejoin="round" stroke-width="0.3" d="M 188.952380952 14.4 L 194.285714286 14.4"/>
  <path data-glyph="a" fill="none" stroke="black" stroke-linecap="round" stroke-linejoin="round" stroke-width="0.3" d="M 5.71428571429 23.4666666667 L 5.71428571429 28.8"/>
  <path data-glyph="a" fill="none" stroke="black" stroke-linecap="round" stroke-linejoin="round" stroke-width="0.3" d="M 5.71428571429 24.6095238095 L 4.95238095238 23.8476190476 L 4.19047619048 23.4666666667 L 3.04761904762 23.4666666667 L 2.28571428571 23.8476190476 L 1.52380952381 24.6095238095 L 1.14285714286 25.7523809524 L 1.14285714286 26.5142857143 L 1.52380952381 27.6571428571 L 2.28571428571 28.419047619 L 3.04761904762 28.8 L 4.19047619048 28.8 L 4.95238095238 28.419047619 L 5.71428571429 27.6571428571"/>
  <path data-glyph="b" fill="none" stroke="black" stroke-linecap="round" stroke-linejoin="round" stroke-width="0.3" d="M 8.7619047619 20.8 L 8.7619047619 28.8"/>
  <path data-glyph="b" fill="none" stroke="black" stroke-linecap="round" stroke-linejoin="round" stroke-width="0.3" d="M 8.7619047619 24.6095238095 L 9.52380952381 23.8476190476 L 10.2857142857 23.4666666667 L 11.4285714286 23.4666666667 L 12.1904761905 23.8476190476 L 12.9523809524 24.6095238095 L 13.3333333333 25.7523809524 L 13.3333333333 26.5142857143 L 12.9523809524 27.6571428571 L 12.1904761905 28.419047619 L 11.4285714286 28.8 L 10.2857142857 28.8 L 9.52380952381 28.419047619 L 8.7619047619 27.6571428571"/>
  <path data-glyph="c" fill="none" stroke="black" stroke-linecap="round" stroke-linejoin="round" stroke-width="0.3" d="M 20.1904761905 24.6095238095 L 19.4285714286 23.8476190476 L 18.6666666667 23.4666666667 L 17.5238095238 23.4666666667 L 16.7619047619 23.8476190476 L 16 24.6095238095 L 15.619047619 25.7523809524 L 15.619047619 26.5142857143 L 16 27.6571428571 L 16.7619047619 28.419047619 L 17.5238095238 28.8 L 18.6666666667 28.8 L 19.4285714286 28.419047619 L 20.1904761905 27.6571428571"/>
  <path data-glyph="d" fill="none" stroke="black" stroke-linecap="round" stroke-linejoin="round" stroke-width="0.3" d="M 27.0476190476 20.8 L 27.0476190476 28.8"/>
  <path data-glyph="d" fill="none" stroke="black" stroke-linecap="round" stroke-linejoin="round" stroke-width="0.3" d="M 27.0476190476 24.6095238095 L 26.2857142857 23.8476190476 L 25.5238095238 23.4666666667 L 24.380952381 23.4666666667 L 23.619047619 23.8476190476 L 22.8571428571 24.6095238095 L 22.4761904762 25.7523809524 L 22.4761904762 26.5142857143 L 22.8571428571 27.6571428571 L 23.619047619 28.419047619 L 24.380952381 28.8 L 25.5238095238 28.8 L 26.2857142857 28.419047619 L 27.0476190476 27.6571428571"/>
  <path data-glyph="e" fill="none" stroke="black" stroke-linecap="round" stroke-linejoin="round" stroke-width="0.3" d="M 29.7142857143 25.7523809524 L 34.2857142857 25.7523809524 L 34.2857142857 24.9904761905 L 33.9047619048 24.2285714286 L 33.5238095238 23.8476190476 L 32.7619047619 23.4666666667 L 31.619047619 23.4666666667 L 30.8571428571 23.8476190476 L 30.0952380952 24.6095238095 L 29.7142857143 25.7523809524 L 29.7142857143 26.5142857143 L 30.0952380952 27.6571428571 L 30.8571428571 28.419047619 L 31.619047619 28.8 L 32.7619047619 28.8 L 33.5238095238 28.419047619 L 34.2857142857 27.6571428571"/>
  <path data-glyph="f" fill="none" stroke="black" stroke-linecap="round" stroke-linejoin="round" stroke-width="0.3" d="M 39.2380952381 20.8 L 38.4761904762 20.8 L 37.7142857143 21.180952381 L 37.3333333333 22.3238095238 L 37.3333333333 28.8"/>
  <path data-glyph="f" fill="none" stroke="black" stroke-linecap="round" stroke-linejoin="round" stroke-width="0.3" d="M 36.1904761905 23.4666666667 L 38.8571428571 23.4666666667"/>
  <path data-glyph="g" fill="none" stroke="black" stroke-linecap="round" stroke-linejoin="round" stroke-width="0.3" d="M 45.7142857143 23.4666666667 L 45.7142857143 29.5619047619 L 45.3333333333 30.7047619048 L 44.9523809524 31.0857142857 L 44.1904761905 31.4666666667 L 43.0476190476 31.4666666667 L 42.2857142857 31.0857142857"/>
  <path data-glyph="g" fill="none" stroke="black" stroke-linecap="round" stroke-linejoin="round" stroke-width="0.3" d="M 45.7142857143 24.6095238095 L 44.9523809524 23.8476190476 L 44.1904761905 23.4666666667 L 43.0476190476 23.4666666667 L 42.2857142857 23.8476190476 L 41.5238095238 24.6095238095 L 41.1428571429 25.7523809524 L 41.1428571429 26.5142857143 L 41.5238095238 27.6571428571 L 42.2857142857 28.419047619 L 43.0476190476 28.8 L 44.1904761905 28.8 L 44.9523809524 28.419047619 L 45.7142857143 27.6571428571"/>
  <path data-glyph="h" fill="none" stroke="black" stroke-linecap="round" stroke-linejoin="round" stroke-width="0.3" d="M 48.7619047619 20.8 L 48.7619047619 28.8"/>
  <path data-glyph="h" fill="none" stroke="black" stroke-linecap="round" stroke-linejoin="round" stroke-width="0.3" d="M 48.7619047619 24.9904761905 L 49.9047619048 23.8476190476 L 50.6666666667 23.4666666667 L 51.8095238095 23.4666666667 L 52.5714285714 23.8476190476 L 52.9523809524 24.9904761905 L 52.9523809524 28.8"/>
  <path data-glyph="i" fill="none" stroke="black" stroke-linecap="round" stroke-linejoin="round" stroke-width="0.3" d="M 55.619047619 20.8 L 56 21.180952381 L 56.380952381 20.8 L 56 20.419047619 L 55.619047619 20.8"/>
  <path data-glyph="i" fill="none" stroke="black" stroke-linecap="round" stroke-linejoin="round" stroke-width="0.3" d="M 56 23.4666666667 L 56 28.8"/>
  <path data-glyph="j" fill="none" stroke="black" stroke-linecap="round" stroke-linejoin="round" stroke-width="0.3" d="M 59.4285714286 20.8 L 59.8095238095 21.180952381 L 60.1904761905 20.8 L 59.8095238095 20.419047619 L 59.4285714286 20.8"/>
  <path data-glyph="j" fill="none" stroke="black" stroke-linecap="round" stroke-linejoin="round" stroke-width="0.3" d="M 59.8095238095 23.4666666667 L 59.8095238095 29.9428571429 L 59.4285714286 31.0857142857 L 58.6666666667 31.4666666667 L 57.9047619048 31.4666666667"/>
  <path data-glyph="k" fill="none" stroke="black" stroke-linecap="round" stroke-linejoin="round" stroke-width="0.3" d="M 62.8571428571 20.8 L 62.8571428571 28.8"/>
  <path data-glyph="k" fill="none" stroke="black" stroke-linecap="round" stroke-linejoin="round" stroke-width="0.3" d="M 66.6666666667 23.4666666667 L 62.8571428571 27.2761904762"/>
  <path data-glyph="k" fill="none" stroke="black" stroke-linecap="round" stroke-linejoin="round" stroke-width="0.3" d="M 64.380952381 25.7523809524 L 67.0476190476 28.8"/>
  <path data-glyph="l" fill="none" stroke="black" stroke-linecap="round" stroke-linejoin="round" stroke-width="0.3" d="M 69.3333333333 20.8 L 69.3333333333 28.8"/>
  <path data-glyph="m" fill="none" stroke="black" stroke-linecap="round" stroke-linejoin="round" stroke-width="0.3" d="M 72.380952381 23.4666666667 L 72.380952381 28.8"/>
  <path data-glyph="m" fill="none" stroke="black" stroke-linecap="round" stroke-linejoin="round" stroke-width="0.3" d="M 72.380952381 24.9904761905 L 73.5238095238 23.8476190476 L 74.2857142857 23.4666666667 L 75.4285714286 23.4666666667 L 76.1904761905 23.8476190476 L 76.5714285714 24.9904761905 L 76.5714285714 28.8"/>
  <path data-glyph="m" fill="none" stroke="black" stroke-linecap="round" stroke-linejoin="round" stroke-width="0.3" d="M 76.5714285714 24.9904761905 L 77.7142857143 23.8476190476 L 78.4761904762 23.4666666667 L 79.619047619 23.4666666667 L 80.380952381 23.8476190476 L 80.7619047619 24.9904761905 L 80.7619047619 28.8"/>
  <path data-glyph="n" fill="none" stroke="black" stroke-linecap="round" stroke-linejoin="round" stroke-width="0.3" d="M 83.8095238095 23.4666666667 L 83.8095238095 28.8"/>
  <path data-glyph="n" fill="none" stroke="black" stroke-linecap="round" stroke-linejoin="round" stroke-width="0.3" d="M 83.8095238095 24.9904761905 L 84.9523809524 23.8476190476 L 85.7142857143 23.4666666667 L 86.8571428571 23.4666666667 L 87.619047619 23.8476190476 L 88 24.9904761905 L 88 28.8"/>
  <path data-glyph="o" fill="none" stroke="black" stroke-linecap="round" stroke-linejoin="round" stroke-width="0.3" d="M 92.5714285714 23.4666666667 L 91.8095238095 23.8476190476 L 91.0476190476 24.6095238095 L 90.6666666667 25.7523809524 L 90.6666666667 26.5142857143 L 91.0476190476 27.6571428571 L 91.8095238095 28.419047619 L 92.5714285714 28.8 L 93.7142857143 28.8 L 94.4761904762 28.419047619 L 95.2380952381 27.6571428571 L 95.619047619 26.5142857143 L 95.619047619 25.7523809524 L 95.2380952381 24.6095238095 L 94.4761904762 23.8476190476 L 93.7142857143 23.4666666667 L 92.5714285714 23.4666666667"/>
  <path data-glyph="p" fill="none" stroke="black" stroke-linecap="round" stroke-linejoin="round" stroke-width="0.3" d="M 98.2857142857 23.4666666667 L 98.2857142857 31.4666666667"/>
  <path data-glyph="p" fill="none" stroke="black" stroke-linecap="round" stroke-linejoin="round" stroke-width="0.3" d="M 98.2857142857 24.6095238095 L 99.0476190476 23.8476190476 L 99.8095238095 23.4666666667 L 100.952380952 23.4666666667 L 101.714285714 23.8476190476 L 102.476190476 24.6095238095 L 102.857142857 25.7523809524 L 102.857142857 26.5142857143 L 102.476190476 27.6571428571 L 101.714285714 28.419047619 L 100.952380952 28.8 L 99.8095238095 28.8 L 99.0476190476 28.419047619 L 98.2857142857 27.6571428571"/>
  <path data-glyph="q" fill="none" stroke="black" stroke-linecap="round" stroke-linejoin="round" stroke-width="0.3" d="M 109.714285714 23.4666666667 L 109.714285714 31.4666666667"/>
  <path data-glyph="q" fill="none" stroke="black" stroke-linecap="round" stroke-linejoin="round" stroke-width="0.3" d="M 109.714285714 24.6095238095 L 108.952380952 23.8476190476 L 108.19047619 23.4666666667 L 107.047619048 23.4666666667 L 106.285714286 23.8476190476 L 105.523809524 24.6095238095 L 105.142857143 25.7523809524 L 105.142857143 26.5142857143 L 105.523809524 27.6571428571 L 106.285714286 28.419047619 L 107.047619048 28.8 L 108.19047619 28.8 L 108.952380952 28.419047619 L 109.714285714 27.6571428571"/>
  <path data-glyph="r" fill="none" stroke="black" stroke-linecap="round" stroke-linejoin="round" stroke-width="0.3" d="M 112.761904762 23.4666666667 L 112.761904762 28.8"/>
  <path data-glyph="r" fill="none" stroke="black" stroke-linecap="round" stroke-linejoin="round" stroke-width="0.3" d="M 112.761904762 25.7523809524 L 113.142857143 24.6095238095 L 113.904761905 23.8476190476 L 114.666666667 23.4666666667 L 115.80952381 23.4666666667"/>
  <path data-glyph="s" fill="none" stroke="black" stroke-linecap="round" stroke-linejoin="round" stroke-width="0.3" d="M 121.523809524 24.6095238095 L 121.142857143 23.8476190476 L 120 23.4666666667 L 118.857142857 23.4666666667 L 117.714285714 23.8476190476 L 117.333333333 24.6095238095 L 117.714285714 25.3714285714 L 118.476190476 25.7523809524 L 120.380952381 26.1333333333 L 121.142857143 26.5142857143 L 121.523809524 27.2761904762 L 121.523809524 27.6571428571 L 121.142857143 28.419047619 L 120 28.8 L 118.857142857 28.8 L 117.714285714 28.419047619 L 117.333333333 27.6571428571"/>
  <path data-glyph="t" fill="none" stroke="black" stroke-linecap="round" stroke-linejoin="round" stroke-width="0.3" d="M 124.571428571 20.8 L 124.571428571 27.2761904762 L 124.952380952 28.419047619 L 125.714285714 28.8 L 126.476190476 28.8"/>
  <path data-glyph="t" fill="none" stroke="black" stroke-linecap="round" stroke-linejoin="round" stroke-width="0.3" d="M 123.428571429 23.4666666667 L 126.095238095 23.4666666667"/>
  <path data-glyph="u" fill="none" stroke="black" stroke-linecap="round" stroke-linejoin="round" stroke-width="0.3" d="M 128.761904762 23.4666666667 L 128.761904762 27.2761904762 L 129.142857143 28.419047619 L 129.904761905 28.8 L 131.047619048 28.8 L 131.80952381 28.419047619 L 132.952380952 27.2761904762"/>
  <path data-glyph="u" fill="none" stroke="black" stroke-linecap="round" stroke-linejoin="round" stroke-width="0.3" d="M 132.952380952 23.4666666667 L 132.952380952 28.8"/>
  <path data-glyph="v" fill="none" stroke="black" stroke-linecap="round" stroke-linejoin="round" stroke-width="0.3" d="M 135.238095238 23.4666666667 L 137.523809524 28.8"/>
  <path data-glyph="v" fill="none" stroke="black" stroke-linecap="round" stroke-linejoin="round" stroke-width="0.3" d="M 139.80952381 23.4666666667 L 137.523809524 28.8"/>
  <path data-glyph="w" fill="none" stroke="black" stroke-linecap="round" stroke-linejoin="round" stroke-width="0.3" d="M 141.714285714 23.4666666667 L 143.238095238 28.8"/>
  <path data-glyph="w" fill="none" stroke="black" stroke-linecap="round" stroke-linejoin="round" stroke-width="0.3" d="M 144.761904762 23.4666666667 L 143.238095238 28.8"/>
  <path data-glyph="w" fill="none" stroke="black" stroke-linecap="round" stroke-linejoin="round" stroke-width="0.3" d="M 144.761904762 23.4666666667 L 146.285714286 28.8"/>
  <path data-glyph="w" fill="none" stroke="black" stroke-linecap="round" stroke-linejoin="round" stroke-width="0.3" d="M 147.80952381 23.4666666667 L 146.285714286 28.8"/>
  <path data-glyph="x" fill="none" stroke="black" stroke-linecap="round" stroke-linejoin="round" stroke-width="0.3" d="M 150.095238095 23.4666666667 L 154.285714286 28.8"/>
  <path data-glyph="x" fill="none" stroke="black" stroke-linecap="round" stroke-linejoin="round" stroke-width="0.3" d="M 154.285714286 23.4666666667 L 150.095238095 28.8"/>
  <path data-glyph="y" fill="none" stroke="black" stroke-linecap="round" stroke-linejoin="round" stroke-width="0.3" d="M 156.19047619 23.4666666667 L 158.476190476 28.8"/>
  <path data-glyph="y" fill="none" stroke="black" stroke-linecap="round" stroke-linejoin="round" stroke-width="0.3" d="M 160.761904762 23.4666666667 L 158.476190476 28.8 L 157.714285714 30.3238095238 L 156.952380952 31.0857142857 L 156.19047619 31.4666666667 L 155.80952381 31.4666666667"/>
  <path data-glyph="z" fill="none" stroke="black" stroke-linecap="round" stroke-linejoin="round" stroke-width="0.3" d="M 166.857142857 23.4666666667 L 162.666666667 28.8"/>
  <path data-glyph="z" fill="none" stroke="black" stroke-linecap="round" stroke-linejoin="round" stroke-width="0.3" d="M 162.666666667 23.4666666667 L 166.857142857 23.4666666667"/>
  <path data-glyph="z" fill="none" stroke="black" stroke-linecap="round" stroke-linejoin="round" stroke-width="0.3" d="M 162.666666667 28.8 L 166.857142857 28.8"/>
  <path data-glyph="zero" fill="none" stroke="black" stroke-linecap="round" stroke-linejoin="round" stroke-width="0.3" d="M 3.42857142857 35.2 L 2.28571428571 35.580952381 L 1.52380952381 36.7238095238 L 1.14285714286 38.6285714286 L 1.14285714286 39.7714285714 L 1.52380952381 41.6761904762 L 2.28571428571 42.819047619 L 3.42857142857 43.2 L 4.19047619048 43.2 L 5.33333333333 42.819047619 L 6.09523809524 41.6761904762 L 6.47619047619 39.7714285714 L 6.47619047619 38.6285714286 L 6.09523809524 36.7238095238 L 5.33333333333 35.580952381 L 4.19047619048 35.2 L 3.42857142857 35.2"/>
  <path data-glyph="one" fill="none" stroke="black" stroke-linecap="round" stroke-linejoin="round" stroke-width="0.3" d="M 9.90476190476 36.7238095238 L 10.6666666667 36.3428571429 L 11.8095238095 35.2 L 11.8095238095 43.2"/>
  <path data-glyph="two" fill="none" stroke="black" stroke-linecap="round" stroke-linejoin="round" stroke-width="0.3" d="M 16.7619047619 37.1047619048 L 16.7619047619 36.7238095238 L 17.1428571429 35.9619047619 L 17.5238095238 35.580952381 L 18.2857142857 35.2 L 19.8095238095 35.2 L 20.5714285714 35.580952381 L 20.9523809524 35.9619047619 L 21.3333333333 36.7238095238 L 21.3333333333 37.4857142857 L 20.9523809524 38.2476190476 L 20.1904761905 39.3904761905 L 16.380952381 43.2 L 21.7142857143 43.2"/>
  <path data-glyph="three" fill="none" stroke="black" stroke-linecap="round" stroke-linejoin="round" stroke-width="0.3" d="M 24.7619047619 35.2 L 28.9523809524 35.2 L 26.6666666667 38.2476190476 L 27.8095238095 38.2476190476 L 28.5714285714 38.6285714286 L 28.9523809524 39.0095238095 L 29.3333333333 40.1523809524 L 29.3333333333 40.9142857143 L 28.9523809524 42.0571428571 L 28.1904761905 42.819047619 L 27.0476190476 43.2 L 25.9047619048 43.2 L 24.7619047619 42.819047619 L 24.380952381 42.4380952381 L 24 41.6761904762"/>
  <path data-glyph="four" fill="none" stroke="black" stroke-linecap="round" stroke-linejoin="round" stroke-width="0.3" d="M 35.4285714286 35.2 L 31.619047619 40.5333333333 L 37.3333333333 40.5333333333"/>
  <path data-glyph="four" fill="none" stroke="black" stroke-linecap="round" stroke-linejoin="round" stroke-width="0.3" d="M 35.4285714286 35.2 L 35.4285714286 43.2"/>
  <path data-glyph="five" fill="none" stroke="black" stroke-linecap="round" stroke-linejoin="round" stroke-width="0.3" d="M 43.8095238095 35.2 L 40 35.2 L 39.619047619 38.6285714286 L 40 38.2476190476 L 41.1428571429 37.8666666667 L 42.2857142857 37.8666666667 L 43.4285714286 38.2476190476 L 44.1904761905 39.0095238095 L 44.5714285714 40.1523809524 L 44.5714285714 40.9142857143 L 44.1904761905 42.0571428571 L 43.4285714286 42.819047619 L 42.2857142857 43.2 L 41.1428571429 43.2 L 40 42.819047619 L 39.619047619 42.4380952381 L 39.2380952381 41.6761904762"/>
  <path data-glyph="six" fill="none" stroke="black" stroke-linecap="round" stroke-linejoin="round" stroke-width="0.3" d="M 51.8095238095 36.3428571429 L 51.4285714286 35.580952381 L 50.2857142857 35.2 L 49.5238095238 35.2 L 48.380952381 35.580952381 L 47.619047619 36.7238095238 L 47.2380952381 38.6285714286 L 47.2380952381 40.5333333333 L 47.619047619 42.0571428571 L 48.380952381 42.819047619 L 49.5238095238 43.2 L 49.9047619048 43.2 L 51.0476190476 42.819047619 L 51.8095238095 42.0571428571 L 52.1904761905 40.9142857143 L 52.1904761905 40.5333333333 L 51.8095238095 39.3904761905 L 51.0476190476 38.6285714286 L 49.9047619048 38.2476190476 L 49.5238095238 38.2476190476 L 48.380952381 38.6285714286 L 47.619047619 39.3904761905 L 47.2380952381 40.5333333333"/>
  <path data-glyph="seven" fill="none" stroke="black" stroke-linecap="round" stroke-linejoin="round" stroke-width="0.3" d="M 59.8095238095 35.2 L 56 43.2"/>
  <path data-glyph="seven" fill="none" stroke="black" stroke-linecap="round" stroke-linejoin="round" stroke-width="0.3" d="M 54.4761904762 35.2 L 59.8095238095 35.2"/>
  <path data-glyph="eight" fill="none" stroke="black" stroke-linecap="round" stroke-linejoin="round" stroke-width="0.3" d="M 64 35.2 L 62.8571428571 35.580952381 L 62.4761904762 36.3428571429 L 62.4761904762 37.1047619048 L 62.8571428571 37.8666666667 L 63.619047619 38.2476190476 L 65.1428571429 38.6285714286 L 66.2857142857 39.0095238095 L 67.0476190476 39.7714285714 L 67.4285714286 40.5333333333 L 67.4285714286 41.6761904762 L 67.0476190476 42.4380952381 L 66.6666666667 42.819047619 L 65.5238095238 43.2 L 64 43.2 L 62.8571428571 42.819047619 L 62.4761904762 42.4380952381 L 62.0952380952 41.6761904762 L 62.0952380952 40.5333333333 L 62.4761904762 39.7714285714 L 63.2380952381 39.0095238095 L 64.380952381 38.6285714286 L 65.9047619048 38.2476190476 L 66.6666666667 37.8666666667 L 67.0476190476 37.1047619048 L 67.0476190476 36.3428571429 L 66.6666666667 35.580952381 L 65.5238095238 35.2 L 64 35.2"/>
  <path data-glyph="nine" fill="none" stroke="black" stroke-linecap="round" stroke-linejoin="round" stroke-width="0.3" d="M 74.6666666667 37.8666666667 L 74.2857142857 39.0095238095 L 73.5238095238 39.7714285714 L 72.380952381 40.1523809524 L 72 40.1523809524 L 70.8571428571 39.7714285714 L 70.0952380952 39.0095238095 L 69.7142857143 37.8666666667 L 69.7142857143 37.4857142857 L 70.0952380952 36.3428571429 L 70.8571428571 35.580952381 L 72 35.2 L 72.380952381 35.2 L 73.5238095238 35.580952381 L 74.2857142857 36.3428571429 L 74.6666666667 37.8666666667 L 74.6666666667 39.7714285714 L 74.2857142857 41.6761904762 L 73.5238095238 42.819047619 L 72.380952381 43.2 L 71.619047619 43.2 L 70.4761904762 42.819047619 L 70.0952380952 42.0571428571"/>
  <path data-glyph="exclam" fill="none" stroke="black" stroke-linecap="round" stroke-linejoin="round" stroke-width="0.3" d="M 84.1904761905 35.2 L 84.1904761905 40.5333333333"/>
  <path data-glyph="exclam" fill="none" stroke="black" stroke-linecap="round" stroke-linejoin="round" stroke-width="0.3" d="M 84.1904761905 42.4380952381 L 83.8095238095 42.819047619 L 84.1904761905 43.2 L 84.5714285714 42.819047619 L 84.1904761905 42.4380952381"/>
  <path data-glyph="question" fill="none" stroke="black" stroke-linecap="round" stroke-linejoin="round" stroke-width="0.3" d="M 87.2380952381 37.1047619048 L 87.2380952381 36.7238095238 L 87.619047619 35.9619047619 L 88 35.580952381 L 88.7619047619 35.2 L 90.2857142857 35.2 L 91.0476190476 35.580952381 L 91.4285714286 35.9619047619 L 91.8095238095 36.7238095238 L 91.8095238095 37.4857142857 L 91.4285714286 38.2476190476 L 91.0476190476 38.6285714286 L 89.5238095238 39.3904761905 L 89.5238095238 40.5333333333"/>
  <path data-glyph="question" fill="none" stroke="black" stroke-linecap="round" stroke-linejoin="round" stroke-width="0.3" d="M 89.5238095238 42.4380952381 L 89.1428571429 42.819047619 L 89.5238095238 43.2 L 89.9047619048 42.819047619 L 89.5238095238 42.4380952381"/>
  <path data-glyph="ampersand" fill="none" stroke="black" stroke-linecap="round" stroke-linejoin="round" stroke-width="0.3" d="M 107.80952381 38.6285714286 L 107.80952381 38.2476190476 L 107.428571429 37.8666666667 L 107.047619048 37.8666666667 L 106.666666667 38.2476190476 L 106.285714286 39.0095238095 L 105.523809524 40.9142857143 L 104.761904762 42.0571428571 L 104 42.819047619 L 103.238095238 43.2 L 101.714285714 43.2 L 100.952380952 42.819047619 L 100.571428571 42.4380952381 L 100.19047619 41.6761904762 L 100.19047619 40.9142857143 L 100.571428571 40.1523809524 L 100.952380952 39.7714285714 L 103.619047619 38.2476190476 L 104 37.8666666667 L 104.380952381 37.1047619048 L 104.380952381 36.3428571429 L 104 35.580952381 L 103.238095238 35.2 L 102.476190476 35.580952381 L 102.095238095 36.3428571429 L 102.095238095 37.1047619048 L 102.476190476 38.2476190476 L 103.238095238 39.3904761905 L 105.142857143 42.0571428571 L 105.904761905 42.819047619 L 106.666666667 43.2 L 107.428571429 43.2 L 107.80952381 42.819047619 L 107.80952381 42.4380952381"/>
  <path data-glyph="at" fill="none" stroke="black" stroke-linecap="round" stroke-linejoin="round" stroke-width="0.3" d="M 121.904761905 38.2476190476 L 121.523809524 37.4857142857 L 120.761904762 37.1047619048 L 119.619047619 37.1047619048 L 118.857142857 37.4857142857 L 118.476190476 37.8666666667 L 118.095238095 39.0095238095 L 118.095238095 40.1523809524 L 118.476190476 40.9142857143 L 119.238095238 41.2952380952 L 120.380952381 41.2952380952 L 121.142857143 40.9142857143 L 121.523809524 40.1523809524"/>
  <path data-glyph="at" fill="none" stroke="black" stroke-linecap="round" stroke-linejoin="round" stroke-width="0.3" d="M 119.619047619 37.1047619048 L 118.857142857 37.8666666667 L 118.476190476 39.0095238095 L 118.476190476 40.1523809524 L 118.857142857 40.9142857143 L 119.238095238 41.2952380952"/>
  <path data-glyph="at" fill="none" stroke="black" stroke-linecap="round" stroke-linejoin="round" stroke-width="0.3" d="M 121.904761905 37.1047619048 L 121.523809524 40.1523809524 L 121.523809524 40.9142857143 L 122.285714286 41.2952380952 L 123.047619048 41.2952380952 L 123.80952381 40.5333333333 L 124.19047619 39.3904761905 L 124.19047619 38.6285714286 L 123.80952381 37.4857142857 L 123.428571429 36.7238095238 L 122.666666667 35.9619047619 L 121.904761905 35.580952381 L 120.761904762 35.2 L 119.619047619 35.2 L 118.476190476 35.580952381 L 117.714285714 35.9619047619 L 116.952380952 36.7238095238 L 116.571428571 37.4857142857 L 116.19047619 38.6285714286 L 116.19047619 39.7714285714 L 116.571428571 40.9142857143 L 116.952380952 41.6761904762 L 117.714285714 42.4380952381 L 118.476190476 42.819047619 L 119.619047619 43.2 L 120.761904762 43.2 L 121.904761905 42.819047619 L 122.666666667 42.4380952381 L 123.047619048 42.0571428571"/>
  <path data-glyph="at" fill="none" stroke="black" stroke-linecap="round" stroke-linejoin="round" stroke-width="0.3" d="M 122.285714286 37.1047619048 L 121.904761905 40.1523809524 L 121.904761905 40.9142857143 L 122.285714286 41.2952380952"/>
  <path data-glyph="plus" fill="none" stroke="black" stroke-linecap="round" stroke-linejoin="round" stroke-width="0.3" d="M 136.380952381 36.3428571429 L 136.380952381 43.2"/>
  <path data-glyph="plus" fill="none" stroke="black" stroke-linecap="round" stroke-linejoin="round" stroke-width="0.3" d="M 132.952380952 39.7714285714 L 139.80952381 39.7714285714"/>
  <path data-glyph="equal" fill="none" stroke="black" stroke-linecap="round" stroke-linejoin="round" stroke-width="0.3" d="M 148.952380952 38.6285714286 L 155.80952381 38.6285714286"/>
  <path data-glyph="equal" fill="none" stroke="black" stroke-linecap="round" stroke-linejoin="round" stroke-width="0.3" d="M 148.952380952 40.9142857143 L 155.80952381 40.9142857143"/>
</svg>
