<svg xmlns="http://www.w3.org/2000/svg" width="174.78mm" height="42.268mm" viewBox="-2.15 -16.71 174.78 42.268">
<metadata>Font name:               EMS Casual Hand
License:                 SIL Open Font License http://scripts.sil.org/OFL
Created by:              Sheldon B. Michaels
SVG font conversion by:  Windell H. Oskay
A derivative of:         Covered By Your Grace
Designer:                Kimberly Geswein, Kimberly Geswein Fonts
Link:                    http://www.kimberlygeswein.com/
Google font page:        https://fonts.google.com/specimen/Covered+By+Your+Grace

Copyright (c) &lt;dates&gt;, &lt;Copyright Holder&gt; (&lt;URL|email&gt;),
with Reserved Font Name &lt;Reserved Font Name&gt;.
Copyright (c) &lt;dates&gt;, &lt;additional Copyright Holder&gt; (&lt;URL|email&gt;),
with Reserved Font Name &lt;additional Reserved Font Name&gt;.
Copyright (c) &lt;dates&gt;, &lt;additional Copyright Holder&gt; (&lt;URL|email&gt;).

This Font Software is licensed under the SIL Open Font License, Version 1.1.
This license is copied below, and is also available with a FAQ at:
http://scripts.sil.org/OFL


-----------------------------------------------------------
SIL OPEN FONT LICENSE Version 1.1 - 26 February 2007
-----------------------------------------------------------

PREAMBLE
The goals of the Open Font License (OFL) are to stimulate worldwide
development of collaborative font projects, to support the font creation
efforts of academic and linguistic communities, and to provide a free and
open framework in which fonts may be shared and improved in partnership
with others.

The OFL allows the licensed fonts to be used, studied, modified and
redistributed freely as long as they are not sold by themselves. The
fonts, including any derivative works, can be bundled, embedded, 
redistributed and/or sold with any software provided that any reserved
names are not used by derivative works. The fonts and derivatives,
however, cannot be released under any other type of license. The
requirement for fonts to remain under this license does not apply
to any document created using the fonts or their derivatives.

DEFINITIONS
&quot;Font Software&quot; refers to the set of files released by the Copyright
Holder(s) under this license and clearly marked as such. This may
include source files, build scripts and documentation.

&quot;Reserved Font Name&quot; refers to any names specified as such after the
copyright statement(s).

&quot;Original Version&quot; refers to the collection of Font Software components as
distributed by the Copyright Holder(s).

&quot;Modified Version&quot; refers to any derivative made by adding to, deleting,
or substituting -- in part or in whole -- any of the components of the
Original Version, by changing formats or by porting the Font Software to a
new environment.

&quot;Author&quot; refers to any designer, engineer, programmer, technical
writer or other person who contributed to the Font Software.

PERMISSION &amp; CONDITIONS
Permission is hereby granted, free of charge, to any person obtaining
a copy of the Font Software, to use, study, copy, merge, embed, modify,
redistribute, and sell modified and unmodified copies of the Font
Software, subject to the following conditions:

1) Neither the Font Software nor any of its individual components,
in Original or Modified Versions, may be sold by itself.

2) Original or Modified Versions of the Font Software may be bundled,
redistributed and/or sold with any software, provided that each copy
contains the above copyright notice and this license. These can be
included either as stand-alone text files, human-readable headers or
in the appropriate machine-readable metadata fields within text or
binary files as long as those fields can be easily viewed by the user.

3) No Modified Version of the Font Software may use the Reserved Font
Name(s) unless explicit written permission is granted by the corresponding
Copyright Holder. This restriction only applies to the primary font name as
presented to the users.

4) The name(s) of the Copyright Holder(s) or the Author(s) of the Font
Software shall not be used to promote, endorse or advertise any
Modified Version, except to acknowledge the contribution(s) of the
Copyright Holder(s) and the Author(s) or with their explicit written
permission.

5) The Font Software, modified or unmodified, in part or in whole,
must be distributed entirely under this license, and must not be
distributed under any other license. The requirement for fonts to
remain under this license does not apply to any document created
using the Font Software.

TERMINATION
This license becomes null and void if any of the above conditions are
not met.

DISCLAIMER
THE FONT SOFTWARE IS PROVIDED &quot;AS IS&quot;, WITHOUT WARRANTY OF ANY KIND,
EXPRESS OR IMPLIED, INCLUDING BUT NOT LIMITED TO ANY WARRANTIES OF
MERCHANTABILITY, FITNESS FOR A PARTICULAR PURPOSE AND NONINFRINGEMENT
OF COPYRIGHT, PATENT, TRADEMARK, OR OTHER RIGHT. IN NO EVENT SHALL THE
COPYRIGHT HOLDER BE LIABLE FOR ANY CLAIM, DAMAGES OR OTHER LIABILITY,
INCLUDING ANY GENERAL, SPECIAL, INDIRECT, INCIDENTAL, OR CONSEQUENTIAL
DAMAGES, WHETHER IN AN ACTION OF CONTRACT, TORT OR OTHERWISE, ARISING
FROM, OUT OF THE USE OR INABILITY TO USE THE FONT SOFTWARE OR FROM
OTHER DEALINGS IN THE FONT SOFTWARE.


Copyright (c) 2010, Kimberly Geswein (kimberlygeswein.com)

This Font Software is licensed under the SIL Open Font License, Version 1.1.
This license is copied below, and is also available with a FAQ at:
http://scripts.sil.org/OFL


-----------------------------------------------------------
SIL OPEN FONT LICENSE Version 1.1 - 26 February 2007
-----------------------------------------------------------

PREAMBLE
The goals of the Open Font License (OFL) are to stimulate worldwide
development of collaborative font projects, to support the font creation
efforts of academic and linguistic communities, and to provide a free and
open framework in which fonts may be shared and improved in partnership
with others.

The OFL allows the licensed fonts to be used, studied, modified and
redistributed freely as long as they are not sold by themselves. The
fonts, including any derivative works, can be bundled, embedded, 
redistributed and/or sold with any software provided that any reserved
names are not used by derivative works. The fonts and derivatives,
however, cannot be released under any other type of license. The
requirement for fonts to remain under this license does not apply
to any document created using the fonts or their derivatives.

DEFINITIONS
&quot;Font Software&quot; refers to the set of files released by the Copyright
Holder(s) under this license and clearly marked as such. This may
include source files, build scripts and documentation.

&quot;Reserved Font Name&quot; refers to any names specified as such after the
copyright statement(s).

&quot;Original Version&quot; refers to the collection of Font Software components as
distributed by the Copyright Holder(s).

&quot;Modified Version&quot; refers to any derivative made by adding to, deleting,
or substituting -- in part or in whole -- any of the components of the
Original Version, by changing formats or by porting the Font Software to a
new environment.

&quot;Author&quot; refers to any designer, engineer, programmer, technical
writer or other person who contributed to the Font Software.

PERMISSION &amp; CONDITIONS
Permission is hereby granted, free of charge, to any person obtaining
a copy of the Font Software, to use, study, copy, merge, embed, modify,
redistribute, and sell modified and unmodified copies of the Font
Software, subject to the following conditions:

1) Neither the Font Software nor any of its individual components,
in Original or Modified Versions, may be sold by itself.

2) Original or Modified Versions of the Font Software may be bundled,
redistributed and/or sold with any software, provided that each copy
contains the above copyright notice and this license. These can be
included either as stand-alone text files, human-readable headers or
in the appropriate machine-readable metadata fields within text or
binary files as long as those fields can be easily viewed by the user.

3) No Modified Version of the Font Software may use the Reserved Font
Name(s) unless explicit written permission is granted by the corresponding
Copyright Holder. This restriction only applies to the primary font name as
presented to the users.

4) The name(s) of the Copyright Holder(s) or the Author(s) of the Font
Software shall not be used to promote, endorse or advertise any
Modified Version, except to acknowledge the contribution(s) of the
Copyright Holder(s) and the Author(s) or with their explicit written
permission.

5) The Font Software, modified or unmodified, in part or in whole,
must be distributed entirely under this license, and must not be
distributed under any other license. The requirement for fonts to
remain under this license does not apply to any document created
using the Font Software.

TERMINATION
This license becomes null and void if any of the above conditions are
not met.

DISCLAIMER
THE FONT SOFTWARE IS PROVIDED &quot;AS IS&quot;, WITHOUT WARRANTY OF ANY KIND,
EXPRESS OR IMPLIED, INCLUDING BUT NOT LIMITED TO ANY WARRANTIES OF
MERCHANTABILITY, FITNESS FOR A PARTICULAR PURPOSE AND NONINFRINGEMENT
OF COPYRIGHT, PATENT, TRADEMARK, OR OTHER RIGHT. IN NO EVENT SHALL THE
COPYRIGHT HOLDER BE LIABLE FOR ANY CLAIM, DAMAGES OR OTHER LIABILITY,
INCLUDING ANY GENERAL, SPECIAL, INDIRECT, INCIDENTAL, OR CONSEQUENTIAL
DAMAGES, WHETHER IN AN ACTION OF CONTRACT, TORT OR OTHERWISE, ARISING
FROM, OUT OF THE USE OR INABILITY TO USE THE FONT SOFTWARE OR FROM
OTHER DEALINGS IN THE FONT SOFTWARE.
</metadata>
  <title>Hamburgefontsiv 0123456789
A O Q gjpq é Å @ &amp; fi</title>
  <path data-glyph="H" fill="none" stroke="black" stroke-linecap="round" stroke-linejoin="round" stroke-width="0.3" d="M 1.92 -0.7552 L 1.4112 -12"/>
  <path data-glyph="H" fill="none" stroke="black" stroke-linecap="round" stroke-linejoin="round" stroke-width="0.3" d="M 1.16 -5.248 L 3.424 -5.344 L 6.096 -6.192"/>
  <path data-glyph="H" fill="none" stroke="black" stroke-linecap="round" stroke-linejoin="round" stroke-width="0.3" d="M 5.184 -14.56 L 5.696 -11.696 L 5.904 -8.416 L 5.792 -4.08 L 5.792 -1.712 L 5.84 -0.9584 L 5.952 -0.5536"/>
  <path data-glyph="a" fill="none" stroke="black" stroke-linecap="round" stroke-linejoin="round" stroke-width="0.3" d="M 12.24 -8.624 L 11.536 -6.256 L 9.872 -3.168 L 8.656 -1.712 L 8.112 -1.512 L 7.9584 -3.52 L 8.864 -7.504 L 10.32 -9.28 L 11.584 -9.984 L 12.096 -9.872 L 13.152 -0.3024"/>
  <path data-glyph="m" fill="none" stroke="black" stroke-linecap="round" stroke-linejoin="round" stroke-width="0.3" d="M 15.168 -7.856 L 15.312 -7.008 L 15.712 -0.3536 L 16.72 -4.384 L 17.888 -6.704 L 18.896 -8.16 L 19.744 -0.8576 L 20.864 -4.896 L 21.712 -6.912 L 22.224 -7.968 L 22.624 -6.56 L 23.936 -0.6048"/>
  <path data-glyph="b" fill="none" stroke="black" stroke-linecap="round" stroke-linejoin="round" stroke-width="0.3" d="M 25.5456 -13.808 L 25.856 -12.752 L 26.144 -0.2528 L 28.576 -2.88 L 29.984 -5.488 L 30.736 -7.456 L 30.24 -8.624 L 29.072 -8.928 L 27.216 -7.968 L 25.344 -6.352"/>
  <path data-glyph="u" fill="none" stroke="black" stroke-linecap="round" stroke-linejoin="round" stroke-width="0.3" d="M 32.2016 -7.76 L 31.9008 -4.64 L 31.8496 -2.112 L 32.608 -0.4544 L 33.76 -0.2016 L 34.368 -0.9072 L 35.072 -2.16 L 35.888 -4.832 L 36.176 -8.112 L 36.24 0.5536"/>
  <path data-glyph="r" fill="none" stroke="black" stroke-linecap="round" stroke-linejoin="round" stroke-width="0.3" d="M 39.152 -0.2016 L 39.008 -0.9072 L 38.4 -8.624 L 38.704 -4.384 L 40.416 -6.8 L 41.824 -8.464 L 43.04 -9.424"/>
  <path data-glyph="g" fill="none" stroke="black" stroke-linecap="round" stroke-linejoin="round" stroke-width="0.3" d="M 49.376 -7.408 L 48.528 -7.968 L 47.216 -7.36 L 45.808 -5.296 L 44.744 -3.168 L 44.4416 -1.3616 L 44.944 -0.504 L 46.4 -1.1584 L 48.064 -3.168 L 48.976 -4.688 L 49.536 -7.2 L 50.144 -0.504 L 50.736 3.936 L 50.544 5.792 L 49.424 7.056 L 48.016 7.408 L 45.552 7.2"/>
  <path data-glyph="e" fill="none" stroke="black" stroke-linecap="round" stroke-linejoin="round" stroke-width="0.3" d="M 51.7968 -3.728 L 53.408 -4.384 L 54.976 -5.44 L 55.872 -6.4 L 55.872 -7.152 L 55.168 -7.856 L 54.16 -7.808 L 53.152 -6.096 L 52.448 -2.368 L 52.496 -0.9584 L 52.912 -0.2528 L 53.92 -0.504 L 58.752 -5.184"/>
  <path data-glyph="f" fill="none" stroke="black" stroke-linecap="round" stroke-linejoin="round" stroke-width="0.3" d="M 62.528 0 L 60.864 -5.296 L 59.856 -4.48 L 63.232 -7.104 L 65.248 -8.112 L 63.184 -7.104 L 60.816 -5.296 L 60.512 -8.32 L 60.656 -12.544 L 61.264 -13.552 L 62.016 -13.808 L 62.784 -13.808"/>
  <path data-glyph="o" fill="none" stroke="black" stroke-linecap="round" stroke-linejoin="round" stroke-width="0.3" d="M 65.76 -7.2 L 65.0544 -2.768 L 65.616 -0.6544 L 67.12 -0.3536 L 68.224 -1.2096 L 69.28 -2.624 L 69.488 -4.48 L 68.928 -5.904 L 68.176 -6.8 L 67.216 -6.608 L 66.112 -5.696 L 65.36 -4.384"/>
  <path data-glyph="n" fill="none" stroke="black" stroke-linecap="round" stroke-linejoin="round" stroke-width="0.3" d="M 71.264 -8.72 L 71.16 -0.4544 L 73.12 -5.952 L 73.888 -7.76 L 74.336 -8.272 L 74.64 -7.968 L 75.488 -4.336 L 76.304 -1.0576 L 76.752 -0.2528"/>
  <path data-glyph="t" fill="none" stroke="black" stroke-linecap="round" stroke-linejoin="round" stroke-width="0.3" d="M 81.04 -0.3536 L 80.432 -6.704 L 78.3648 -5.744 L 84.912 -8.32 L 80.432 -6.608 L 80.08 -13.552"/>
  <path data-glyph="s" fill="none" stroke="black" stroke-linecap="round" stroke-linejoin="round" stroke-width="0.3" d="M 89.456 -0.1512 L 91.568 -2.88 L 92.128 -3.728 L 92.08 -4.128 L 91.376 -4.336 L 88.896 -3.68 L 87.648 -3.728 L 86.88 -3.824 L 86.584 -4.176 L 87.088 -5.184 L 89.008 -6.848 L 90.464 -7.616 L 91.632 -7.76"/>
  <path data-glyph="i" fill="none" stroke="black" stroke-linecap="round" stroke-linejoin="round" stroke-width="0.3" d="M 94.8 -0.3024 L 94.0896 -8.768"/>
  <path data-glyph="i" fill="none" stroke="black" stroke-linecap="round" stroke-linejoin="round" stroke-width="0.3" d="M 93.4864 -14.464 L 94.04 -13.856 L 94.4 -14.368 L 93.4864 -14.464"/>
  <path data-glyph="v" fill="none" stroke="black" stroke-linecap="round" stroke-linejoin="round" stroke-width="0.3" d="M 96.6544 -7.616 L 99.728 -0.6544 L 101.952 -8.32"/>
  <path data-glyph="zero" fill="none" stroke="black" stroke-linecap="round" stroke-linejoin="round" stroke-width="0.3" d="M 110.16 -7.312 L 109.7632 -2.416 L 110.224 -0.6544 L 111.424 -0.1008 L 112.832 -0.8064 L 113.84 -3.072 L 114 -6.304 L 113.696 -8.064 L 112.64 -9.424 L 110.976 -9.28 L 110.16 -7.312"/>
  <path data-glyph="one" fill="none" stroke="black" stroke-linecap="round" stroke-linejoin="round" stroke-width="0.3" d="M 115.6032 -0.3536 L 115.5024 -5.088 L 115.952 -10.336"/>
  <path data-glyph="two" fill="none" stroke="black" stroke-linecap="round" stroke-linejoin="round" stroke-width="0.3" d="M 117.7184 -6.304 L 117.872 -6.352 L 119.776 -7.968 L 121.248 -8.72 L 121.952 -8.672 L 122.208 -7.616 L 121.648 -5.296 L 120.544 -2.928 L 118.976 -0.4544 L 121.344 -1.512 L 123.36 -2.464 L 124.88 -2.768"/>
  <path data-glyph="three" fill="none" stroke="black" stroke-linecap="round" stroke-linejoin="round" stroke-width="0.3" d="M 128.8 -0.2528 L 129.36 -0.2016 L 131.024 -1.5632 L 131.728 -3.728 L 131.472 -5.44 L 129.952 -5.904 L 127.648 -4.784 L 127.184 -4.736 L 127.536 -5.488 L 129.76 -8.672 L 130.256 -9.52 L 129.856 -9.824 L 127.648 -9.12 L 125.8256 -8.112"/>
  <path data-glyph="four" fill="none" stroke="black" stroke-linecap="round" stroke-linejoin="round" stroke-width="0.3" d="M 137.52 -0.1008 L 137.008 -5.84 L 137.008 -10.48 L 133.28 -4.736 L 135.904 -5.088 L 139.184 -6"/>
  <path data-glyph="five" fill="none" stroke="black" stroke-linecap="round" stroke-linejoin="round" stroke-width="0.3" d="M 142.448 -0.2528 L 144.32 -2.16 L 145.28 -3.824 L 145.072 -4.688 L 144.112 -4.784 L 142.496 -3.936 L 141.248 -3.072 L 140.84 -2.88 L 140.7392 -3.824 L 141.392 -8.464 L 141.344 -7.76 L 146.832 -8.624"/>
  <path data-glyph="six" fill="none" stroke="black" stroke-linecap="round" stroke-linejoin="round" stroke-width="0.3" d="M 149.264 2.016 L 149.52 -0.3024 L 150.816 -2.672 L 152.032 -3.936 L 152.592 -3.936 L 152.64 -3.232 L 152.176 -1.4112 L 151.024 -0.4544 L 150.112 -0.3536 L 149.008 -0.7552 L 148.352 -1.968 L 148.5536 -4.48 L 150.16 -9.776"/>
  <path data-glyph="seven" fill="none" stroke="black" stroke-linecap="round" stroke-linejoin="round" stroke-width="0.3" d="M 157.52 -0.1008 L 157.68 -3.472 L 158.224 -7.856 L 158.736 -10.736 L 155.76 -9.824 L 153.7968 -9.68"/>
  <path data-glyph="eight" fill="none" stroke="black" stroke-linecap="round" stroke-linejoin="round" stroke-width="0.3" d="M 163.12 -0.1008 L 164.32 -0.8064 L 164.672 -1.92 L 164.32 -3.424 L 162.96 -4.784 L 161.248 -6.192 L 160.2448 -7.616 L 160.4464 -8.72 L 161.904 -9.776 L 162.96 -9.984 L 164.032 -9.424 L 163.872 -7.968 L 163.52 -6.704 L 162.256 -3.824 L 161.76 -2.416 L 161.712 -1.0576 L 162.464 -0.2016 L 163.12 -0.1008"/>
  <path data-glyph="nine" fill="none" stroke="black" stroke-linecap="round" stroke-linejoin="round" stroke-width="0.3" d="M 169.424 -0.2528 L 170.272 -11.296 L 169.824 -11.392 L 168.208 -9.168 L 167.312 -7.968 L 166.248 -8.16 L 166.0464 -9.68 L 167.008 -11.792 L 168.32 -12.752 L 169.024 -12.848 L 169.52 -12.192 L 169.632 -11.088"/>
  <path data-glyph="A" fill="none" stroke="black" stroke-linecap="round" stroke-linejoin="round" stroke-width="0.3" d="M 1.4112 15.8488 L 1.968 8.848 L 2.976 2.8 L 3.52 2.752 L 6.352 10.512 L 7.856 13.632"/>
  <path data-glyph="A" fill="none" stroke="black" stroke-linecap="round" stroke-linejoin="round" stroke-width="0.3" d="M 1.76 12.528 L 6.256 9.952 L 9.52 8.192"/>
  <path data-glyph="O" fill="none" stroke="black" stroke-linecap="round" stroke-linejoin="round" stroke-width="0.3" d="M 18.64 15.7984 L 18.944 15.6464 L 20.512 14.488 L 20.96 12.88 L 20.656 7.536 L 20.208 5.056 L 19.696 4.112 L 18.8 4 L 17.84 4.912 L 17.032 6.88 L 16.8304 10.096 L 16.88 12.224 L 17.184 14.24 L 17.632 15.0928 L 18.64 15.7984"/>
  <path data-glyph="Q" fill="none" stroke="black" stroke-linecap="round" stroke-linejoin="round" stroke-width="0.3" d="M 30.4 5.408 L 29.088 9.6 L 28.4784 13.184 L 29.136 15.1936 L 30.24 15.5456 L 31.856 14.336 L 33.168 11.104 L 33.424 7.728 L 33.12 6.48 L 32.256 5.968 L 30.992 6.576 L 29.632 8.288"/>
  <path data-glyph="Q" fill="none" stroke="black" stroke-linecap="round" stroke-linejoin="round" stroke-width="0.3" d="M 31.952 12.064 L 38.16 18.32"/>
  <path data-glyph="g" fill="none" stroke="black" stroke-linecap="round" stroke-linejoin="round" stroke-width="0.3" d="M 48.688 8.592 L 47.84 8.032 L 46.528 8.64 L 45.12 10.704 L 44.056 12.832 L 43.7536 14.6384 L 44.256 15.496 L 45.712 14.8416 L 47.376 12.832 L 48.288 11.312 L 48.848 8.8 L 49.456 15.496 L 50.048 19.936 L 49.856 21.792 L 48.736 23.056 L 47.328 23.408 L 44.864 23.2"/>
  <path data-glyph="j" fill="none" stroke="black" stroke-linecap="round" stroke-linejoin="round" stroke-width="0.3" d="M 48.384 19.424 L 49.5456 20.288 L 50.8064 20.432 L 51.872 19.936 L 52.88 18.368 L 52.88 15.8992 L 52.224 7.376"/>
  <path data-glyph="j" fill="none" stroke="black" stroke-linecap="round" stroke-linejoin="round" stroke-width="0.3" d="M 50.7552 2.032 L 51.512 2.64 L 51.712 2.336 L 50.9072 2.096"/>
  <path data-glyph="p" fill="none" stroke="black" stroke-linecap="round" stroke-linejoin="round" stroke-width="0.3" d="M 55.488 21.248 L 55.04 9.088 L 55.04 10.704 L 54.128 12.064 L 56.4 9.248 L 58.656 7.984 L 60.224 8.032 L 60.528 9.2 L 60.128 10.656 L 59.024 12.576 L 57.248 14.384 L 55.344 15.7472"/>
  <path data-glyph="q" fill="none" stroke="black" stroke-linecap="round" stroke-linejoin="round" stroke-width="0.3" d="M 67.44 8.688 L 66.32 11.52 L 64.768 14.192 L 63.504 15.3456 L 62.544 15.2448 L 61.992 13.888 L 62.2944 11.92 L 63.248 10.352 L 64.768 8.896 L 65.92 8.384 L 67.136 8.288 L 67.088 13.232 L 67.024 18.416 L 67.392 22"/>
  <path data-glyph="eacute" fill="none" stroke="black" stroke-linecap="round" stroke-linejoin="round" stroke-width="0.3" d="M 74.9488 12.272 L 76.56 11.616 L 78.128 10.56 L 79.024 9.6 L 79.024 8.848 L 78.32 8.144 L 77.312 8.192 L 76.304 9.904 L 75.6 13.632 L 75.648 15.0416 L 76.064 15.7472 L 77.072 15.496 L 81.904 10.816"/>
  <path data-glyph="eacute" fill="none" stroke="black" stroke-linecap="round" stroke-linejoin="round" stroke-width="0.3" d="M 79.44 2.48 L 79.344 3.072 L 79.04 3.84 L 78.688 4.384 L 78.336 4.848"/>
  <path data-glyph="Aring" fill="none" stroke="black" stroke-linecap="round" stroke-linejoin="round" stroke-width="0.3" d="M 89.4592 15.8488 L 90.016 8.848 L 91.024 2.8 L 91.568 2.752 L 94.4 10.512 L 95.904 13.632"/>
  <path data-glyph="Aring" fill="none" stroke="black" stroke-linecap="round" stroke-linejoin="round" stroke-width="0.3" d="M 89.808 12.528 L 94.304 9.952 L 97.568 8.192"/>
  <path data-glyph="Aring" fill="none" stroke="black" stroke-linecap="round" stroke-linejoin="round" stroke-width="0.3" d="M 90.768 0.864 L 90.88 0.816 L 91.44 0.4 L 91.6 -0.184 L 91.488 -2.1072 L 91.328 -2.9968 L 91.152 -3.3408 L 90.832 -3.3776 L 90.48 -3.0512 L 90.192 -2.344 L 90.112 -1.1824 L 90.128 -0.4208 L 90.24 0.304 L 90.4 0.608 L 90.768 0.864"/>
  <path data-glyph="at" fill="none" stroke="black" stroke-linecap="round" stroke-linejoin="round" stroke-width="0.3" d="M 111.072 8.544 L 110.624 8.032 L 109.52 8.336 L 108 9.808 L 107.248 11.312 L 107.392 12.224 L 108.048 12.32 L 109.312 11.216 L 110.016 10.208 L 110.88 8.992 L 110.72 10.912 L 111.376 12.064 L 112.544 11.92 L 112.992 11.104 L 113.2 8.592 L 112.944 5.664 L 112.288 4.304 L 111.28 3.904 L 110.016 4.208 L 107.552 6.72 L 105.792 9.808 L 104.8784 12.576 L 105.584 14.5888 L 107.552 15.8488 L 110.416 15.8488 L 115.408 13.68 L 116.928 12.832 L 117.728 12.064"/>
  <path data-glyph="ampersand" fill="none" stroke="black" stroke-linecap="round" stroke-linejoin="round" stroke-width="0.3" d="M 127.712 16.9072 L 127.568 14.992"/>
  <path data-glyph="ampersand" fill="none" stroke="black" stroke-linecap="round" stroke-linejoin="round" stroke-width="0.3" d="M 129.28 12.624 L 127.264 12.224 L 126.096 11.216 L 125.344 10.048 L 125.952 9.392 L 128.624 9.152 L 126.912 7.84 L 125.744 7.024 L 125.792 6.528 L 127.312 6.272 L 128.976 6.224"/>
  <path data-glyph="ampersand" fill="none" stroke="black" stroke-linecap="round" stroke-linejoin="round" stroke-width="0.3" d="M 127.152 4.048 L 127.008 2.448"/>
  <path data-glyph="f" fill="none" stroke="black" stroke-linecap="round" stroke-linejoin="round" stroke-width="0.3" d="M 139.504 16 L 137.84 10.704 L 136.832 11.52 L 140.208 8.896 L 142.224 7.888 L 140.16 8.896 L 137.792 10.704 L 137.488 7.68 L 137.632 3.456 L 138.24 2.448 L 138.992 2.192 L 139.76 2.192"/>
  <path data-glyph="i" fill="none" stroke="black" stroke-linecap="round" stroke-linejoin="round" stroke-width="0.3" d="M 142.992 15.6976 L 142.2816 7.232"/>
  <path data-glyph="i" fill="none" stroke="black" stroke-linecap="round" stroke-linejoin="round" stroke-width="0.3" d="M 141.6784 1.536 L 142.232 2.144 L 142.592 1.632 L 141.6784 1.536"/>
</svg>
