<svg xmlns="http://www.w3.org/2000/svg" width="196.38mm" height="36.3mm" viewBox="-2.15 -14.95 196.38 36.3">
<metadata>Font name:               EMS Delight Swash Caps
License:                 SIL Open Font License http://scripts.sil.org/OFL
Created by:              Sheldon B. Michaels
SVG font conversion by:  Windell H. Oskay
A derivative of:         Delius Swash Caps
Designer:                Natalia Raices
Google font page:        https://fonts.google.com/specimen/Delius+Swash+Caps

Copyright (c) &lt;dates&gt;, &lt;Copyright Holder&gt; (&lt;URL|email&gt;),
with Reserved Font Name &lt;Reserved Font Name&gt;.
Copyright (c) &lt;dates&gt;, &lt;additional Copyright Holder&gt; (&lt;URL|email&gt;),
with Reserved Font Name &lt;additional Reserved Font Name&gt;.
Copyright (c) &lt;dates&gt;, &lt;additional Copyright Holder&gt; (&lt;URL|email&gt;).

This Font Software is licensed under the SIL Open Font License, Version 1.1.
This license is copied below, and is also available with a FAQ at:
http://scripts.sil.org/OFL


-----------------------------------------------------------
SIL OPEN FONT LICENSE Version 1.1 - 26 February 2007
-----------------------------------------------------------

PREAMBLE
The goals of the Open Font License (OFL) are to stimulate worldwide
development of collaborative font projects, to support the font creation
efforts of academic and linguistic communities, and to provide a free and
open framework in which fonts may be shared and improved in partnership
with others.

The OFL allows the licensed fonts to be used, studied, modified and
redistributed freely as long as they are not sold by themselves. The
fonts, including any derivative works, can be bundled, embedded, 
redistributed and/or sold with any software provided that any reserved
names are not used by derivative works. The fonts and derivatives,
however, cannot be released under any other type of license. The
requirement for fonts to remain under this license does not apply
to any document created using the fonts or their derivatives.

DEFINITIONS
&quot;Font Software&quot; refers to the set of files released by the Copyright
Holder(s) under this license and clearly marked as such. This may
include source files, build scripts and documentation.

&quot;Reserved Font Name&quot; refers to any names specified as such after the
copyright statement(s).

&quot;Original Version&quot; refers to the collection of Font Software components as
distributed by the Copyright Holder(s).

&quot;Modified Version&quot; refers to any derivative made by adding to, deleting,
or substituting -- in part or in whole -- any of the components of the
Original Version, by changing formats or by porting the Font Software to a
new environment.

&quot;Author&quot; refers to any designer, engineer, programmer, technical
writer or other person who contributed to the Font Software.

PERMISSION &amp; CONDITIONS
Permission is hereby granted, free of charge, to any person obtaining
a copy of the Font Software, to use, study, copy, merge, embed, modify,
redistribute, and sell modified and unmodified copies of the Font
Software, subject to the following conditions:

1) Neither the Font Software nor any of its individual components,
in Original or Modified Versions, may be sold by itself.

2) Original or Modified Versions of the Font Software may be bundled,
redistributed and/or sold with any software, provided that each copy
contains the above copyright notice and this license. These can be
included either as stand-alone text files, human-readable headers or
in the appropriate machine-readable metadata fields within text or
binary files as long as those fields can be easily viewed by the user.

3) No Modified Version of the Font Software may use the Reserved Font
Name(s) unless explicit written permission is granted by the corresponding
Copyright Holder. This restriction only applies to the primary font name as
presented to the users.

4) The name(s) of the Copyright Holder(s) or the Author(s) of the Font
Software shall not be used to promote, endorse or advertise any
Modified Version, except to acknowledge the contribution(s) of the
Copyright Holder(s) and the Author(s) or with their explicit written
permission.

5) The Font Software, modified or unmodified, in part or in whole,
must be distributed entirely under this license, and must not be
distributed under any other license. The requirement for fonts to
remain under this license does not apply to any document created
using the Font Software.

TERMINATION
This license becomes null and void if any of the above conditions are
not met.

DISCLAIMER
THE FONT SOFTWARE IS PROVIDED &quot;AS IS&quot;, WITHOUT WARRANTY OF ANY KIND,
EXPRESS OR IMPLIED, INCLUDING BUT NOT LIMITED TO ANY WARRANTIES OF
MERCHANTABILITY, FITNESS FOR A PARTICULAR PURPOSE AND NONINFRINGEMENT
OF COPYRIGHT, PATENT, TRADEMARK, OR OTHER RIGHT. IN NO EVENT SHALL THE
COPYRIGHT HOLDER BE LIABLE FOR ANY CLAIM, DAMAGES OR OTHER LIABILITY,
INCLUDING ANY GENERAL, SPECIAL, INDIRECT, INCIDENTAL, OR CONSEQUENTIAL
DAMAGES, WHETHER IN AN ACTION OF CONTRACT, TORT OR OTHERWISE, ARISING
FROM, OUT OF THE USE OR INABILITY TO USE THE FONT SOFTWARE OR FROM
OTHER DEALINGS IN THE FONT SOFTWARE.


Copyright (c) 2010, 2011, Natalia Raices,
Copyright (c) 2011, Igino Marini. (www.ikern.com|mail@iginomarini.com),
with Reserved Font Names &quot;Delia&quot;, &quot;Delia Unicase&quot;, &quot;Delius&quot; 
and &quot;Delius Unicase&quot;.

This Font Software is licensed under the SIL Open Font License, Version 1.1.
This license is copied below, and is also available with a FAQ at:
http://scripts.sil.org/OFL


-----------------------------------------------------------
SIL OPEN FONT LICENSE Version 1.1 - 26 February 2007
-----------------------------------------------------------

PREAMBLE
The goals of the Open Font License (OFL) are to stimulate worldwide
development of collaborative font projects, to support the font creation
efforts of academic and linguistic communities, and to provide a free and
open framework in which fonts may be shared and improved in partnership
with others.

The OFL allows the licensed fonts to be used, studied, modified and
redistributed freely as long as they are not sold by themselves. The
fonts, including any derivative works, can be bundled, embedded, 
redistributed and/or sold with any software provided that any reserved
names are not used by derivative works. The fonts and derivatives,
however, cannot be released under any other type of license. The
requirement for fonts to remain under this license does not apply
to any document created using the fonts or their derivatives.

DEFINITIONS
&quot;Font Software&quot; refers to the set of files released by the Copyright
Holder(s) under this license and clearly marked as such. This may
include source files, build scripts and documentation.

&quot;Reserved Font Name&quot; refers to any names specified as such after the
copyright statement(s).

&quot;Original Version&quot; refers to the collection of Font Software components as
distributed by the Copyright Holder(s).

&quot;Modified Version&quot; refers to any derivative made by adding to, deleting,
or substituting -- in part or in whole -- any of the components of the
Original Version, by changing formats or by porting the Font Software to a
new environment.

&quot;Author&quot; refers to any designer, engineer, programmer, technical
writer or other person who contributed to the Font Software.

PERMISSION &amp; CONDITIONS
Permission is hereby granted, free of charge, to any person obtaining
a copy of the Font Software, to use, study, copy, merge, embed, modify,
redistribute, and sell modified and unmodified copies of the Font
Software, subject to the following conditions:

1) Neither the Font Software nor any of its individual components,
in Original or Modified Versions, may be sold by itself.

2) Original or Modified Versions of the Font Software may be bundled,
redistributed and/or sold with any software, provided that each copy
contains the above copyright notice and this license. These can be
included either as stand-alone text files, human-readable headers or
in the appropriate machine-readable metadata fields within text or
binary files as long as those fields can be easily viewed by the user.

3) No Modified Version of the Font Software may use the Reserved Font
Name(s) unless explicit written permission is granted by the corresponding
Copyright Holder. This restriction only applies to the primary font name as
presented to the users.

4) The name(s) of the Copyright Holder(s) or the Author(s) of the Font
Software shall not be used to promote, endorse or advertise any
Modified Version, except to acknowledge the contribution(s) of the
Copyright Holder(s) and the Author(s) or with their explicit written
permission.

5) The Font Software, modified or unmodified, in part or in whole,
must be distributed entirely under this license, and must not be
distributed under any other license. The requirement for fonts to
remain under this license does not apply to any document created
using the Font Software.

TERMINATION
This license becomes null and void if any of the above conditions are
not met.

DISCLAIMER
THE FONT SOFTWARE IS PROVIDED &quot;AS IS&quot;, WITHOUT WARRANTY OF ANY KIND,
EXPRESS OR IMPLIED, INCLUDING BUT NOT LIMITED TO ANY WARRANTIES OF
MERCHANTABILITY, FITNESS FOR A PARTICULAR PURPOSE AND NONINFRINGEMENT
OF COPYRIGHT, PATENT, TRADEMARK, OR OTHER RIGHT. IN NO EVENT SHALL THE
COPYRIGHT HOLDER BE LIABLE FOR ANY CLAIM, DAMAGES OR OTHER LIABILITY,
INCLUDING ANY GENERAL, SPECIAL, INDIRECT, INCIDENTAL, OR CONSEQUENTIAL
DAMAGES, WHETHER IN AN ACTION OF CONTRACT, TORT OR OTHERWISE, ARISING
FROM, OUT OF THE USE OR INABILITY TO USE THE FONT SOFTWARE OR FROM
OTHER DEALINGS IN THE FONT SOFTWARE.
</metadata>
  <title>Hamburgefontsiv 0123456789
A O Q gjpq é Å @ &amp; fi</title>
  <path data-glyph="H" fill="none" stroke="black" stroke-linecap="round" stroke-linejoin="round" stroke-width="0.3" d="M 2.32 -10.592 L 2.32 -0.1512"/>
  <path data-glyph="H" fill="none" stroke="black" stroke-linecap="round" stroke-linejoin="round" stroke-width="0.3" d="M 8.672 -10.64 L 8.672 -0.1512"/>
  <path data-glyph="H" fill="none" stroke="black" stroke-linecap="round" stroke-linejoin="round" stroke-width="0.3" d="M 1.2608 -5.744 L 2.816 -5.04 L 4.592 -4.896 L 6.496 -5.136 L 7.712 -5.696 L 8.512 -6.352"/>
  <path data-glyph="a" fill="none" stroke="black" stroke-linecap="round" stroke-linejoin="round" stroke-width="0.3" d="M 16.832 -5.84 L 15.824 -6.56 L 14.464 -7.056 L 12.944 -6.56 L 11.792 -5.04 L 11.488 -3.776 L 11.6896 -2.272 L 12.4 -0.7552 L 13.808 -0.2528 L 15.312 -0.7056 L 16.224 -1.76 L 16.832 -2.976 L 16.88 -6.848 L 16.88 -1.0576 L 17.04 -0.504 L 17.28 -0.3024 L 17.632 -0.3024"/>
  <path data-glyph="m" fill="none" stroke="black" stroke-linecap="round" stroke-linejoin="round" stroke-width="0.3" d="M 19.856 -6.8 L 20.064 -0.6048 L 19.904 -0.1512 L 19.712 -0.3024 L 19.904 -3.328 L 20.72 -5.536 L 22.224 -6.96 L 23.792 -6.704 L 24.592 -5.488 L 24.8 -4.48 L 24.944 -0.4032 L 24.656 0 L 24.496 -0.1512 L 24.944 -4.592 L 25.808 -6 L 27.168 -6.912 L 28.688 -6.496 L 29.392 -5.184 L 29.44 -3.024 L 29.392 -0.8576 L 29.632 -0.2528 L 30.144 -0.2528"/>
  <path data-glyph="b" fill="none" stroke="black" stroke-linecap="round" stroke-linejoin="round" stroke-width="0.3" d="M 32.208 -10.64 L 32.368 -3.28 L 32.16 -0.2528 L 32.72 -5.136 L 34.08 -6.56 L 35.632 -6.912 L 36.752 -6.352 L 37.408 -4.992 L 37.504 -2.976 L 36.992 -1.2608 L 36.144 -0.5536 L 34.48 -0.2016 L 33.312 -0.6544 L 32.816 -1.1584 L 32.512 -1.968"/>
  <path data-glyph="u" fill="none" stroke="black" stroke-linecap="round" stroke-linejoin="round" stroke-width="0.3" d="M 40.016 -6.848 L 40.08 -4.336 L 40.08 -2.16 L 40.576 -0.8064 L 41.792 -0.1512 L 42.944 -0.3024 L 44.16 -1.512 L 45.008 -2.88 L 44.96 -6.912 L 45.216 -7.008 L 45.264 -4.688 L 45.056 -2.16 L 45.216 -1.008 L 45.52 -0.2016 L 46.016 -0.2016"/>
  <path data-glyph="r" fill="none" stroke="black" stroke-linecap="round" stroke-linejoin="round" stroke-width="0.3" d="M 48.288 -6.752 L 48.288 -0.3024 L 48.288 -4.432 L 49.648 -6.144 L 50.608 -6.912 L 51.36 -6.912 L 51.872 -6.448"/>
  <path data-glyph="g" fill="none" stroke="black" stroke-linecap="round" stroke-linejoin="round" stroke-width="0.3" d="M 58.816 -5.6 L 57.456 -6.704 L 55.84 -6.912 L 54.48 -6.192 L 53.528 -4.832 L 53.376 -2.976 L 53.824 -1.3616 L 54.592 -0.4544 L 55.744 -0.1512 L 56.704 -0.4544 L 57.616 -1.1584 L 58.32 -2.272 L 58.816 -3.52 L 58.816 -6.848 L 58.864 0.1008 L 58.576 1.16 L 57.856 2.32 L 56.752 3.024 L 55.696 3.12 L 54.832 2.928 L 53.776 2.528"/>
  <path data-glyph="e" fill="none" stroke="black" stroke-linecap="round" stroke-linejoin="round" stroke-width="0.3" d="M 60.68 -3.984 L 62.592 -3.472 L 64.608 -3.328 L 65.92 -3.728 L 66.784 -4.832 L 66.576 -5.744 L 65.824 -6.656 L 64.256 -7.008 L 62.944 -6.56 L 62.048 -5.344 L 61.584 -4.384 L 61.584 -2.816 L 61.984 -1.512 L 63.296 -0.3536 L 64.464 -0.1008 L 65.568 -0.2016 L 66.784 -1.008"/>
  <path data-glyph="f" fill="none" stroke="black" stroke-linecap="round" stroke-linejoin="round" stroke-width="0.3" d="M 68.4976 1.664 L 69.408 0.6048 L 69.712 0.0504 L 69.552 -8.72 L 69.856 -9.824 L 70.368 -10.432 L 70.912 -10.64 L 71.376 -10.592 L 72.176 -10.176"/>
  <path data-glyph="f" fill="none" stroke="black" stroke-linecap="round" stroke-linejoin="round" stroke-width="0.3" d="M 68.1952 -6.8 L 71.776 -6.8"/>
  <path data-glyph="o" fill="none" stroke="black" stroke-linecap="round" stroke-linejoin="round" stroke-width="0.3" d="M 76.112 -7.008 L 74.752 -6.752 L 73.488 -5.44 L 73.0384 -3.424 L 73.536 -1.616 L 74.896 -0.4032 L 76.416 -0.0504 L 78.032 -0.9584 L 78.928 -2.88 L 78.832 -4.832 L 77.872 -6.4 L 77.024 -6.848 L 76.112 -7.008"/>
  <path data-glyph="n" fill="none" stroke="black" stroke-linecap="round" stroke-linejoin="round" stroke-width="0.3" d="M 81.456 -6.912 L 81.712 -0.2528 L 81.36 -0.1512 L 81.264 -0.7056 L 81.712 -4.384 L 82.976 -6.192 L 84.128 -6.912 L 85.552 -6.704 L 86.4 -5.744 L 86.704 -4.24 L 86.608 -0.7552 L 86.848 -0.3024 L 87.264 -0.3024"/>
  <path data-glyph="t" fill="none" stroke="black" stroke-linecap="round" stroke-linejoin="round" stroke-width="0.3" d="M 90.032 -9.12 L 90.08 -0.9072 L 90.336 -0.3024 L 91.04 -0.2016 L 92.048 -0.6048"/>
  <path data-glyph="t" fill="none" stroke="black" stroke-linecap="round" stroke-linejoin="round" stroke-width="0.3" d="M 88.4672 -6.752 L 92 -6.704"/>
  <path data-glyph="s" fill="none" stroke="black" stroke-linecap="round" stroke-linejoin="round" stroke-width="0.3" d="M 97.696 -6.304 L 96.192 -7.008 L 94.832 -6.8 L 93.816 -5.696 L 94.176 -4.592 L 96.128 -3.728 L 97.792 -2.816 L 98.048 -1.808 L 97.44 -0.7056 L 95.776 -0.1512 L 94.176 -0.5536 L 93.464 -1.2096"/>
  <path data-glyph="i" fill="none" stroke="black" stroke-linecap="round" stroke-linejoin="round" stroke-width="0.3" d="M 100.368 -7.008 L 100.368 -0.1512"/>
  <path data-glyph="i" fill="none" stroke="black" stroke-linecap="round" stroke-linejoin="round" stroke-width="0.3" d="M 100.008 -10.08 L 100.008 -9.424 L 100.512 -9.376 L 100.464 -10.08 L 100.008 -10.08"/>
  <path data-glyph="v" fill="none" stroke="black" stroke-linecap="round" stroke-linejoin="round" stroke-width="0.3" d="M 102.32 -6.96 L 104.896 -0.2528 L 105.296 -0.2016 L 107.872 -6.848"/>
  <path data-glyph="zero" fill="none" stroke="black" stroke-linecap="round" stroke-linejoin="round" stroke-width="0.3" d="M 119.248 -9.872 L 117.936 -9.568 L 116.736 -8.416 L 115.92 -6.56 L 115.824 -5.344 L 115.968 -3.632 L 116.272 -2.368 L 116.832 -1.512 L 117.632 -0.6544 L 118.448 -0.1512 L 119.648 -0.1512 L 120.864 -0.6544 L 122.016 -1.968 L 122.624 -3.776 L 122.528 -6 L 122.224 -7.504 L 121.568 -8.576 L 120.96 -9.28 L 120.352 -9.68 L 119.248 -9.872"/>
  <path data-glyph="one" fill="none" stroke="black" stroke-linecap="round" stroke-linejoin="round" stroke-width="0.3" d="M 124.3952 -6.352 L 127.312 -9.936 L 127.312 -0.2528"/>
  <path data-glyph="two" fill="none" stroke="black" stroke-linecap="round" stroke-linejoin="round" stroke-width="0.3" d="M 130.496 -8.368 L 131.248 -9.28 L 132.304 -9.728 L 133.568 -9.824 L 134.432 -9.472 L 135.184 -8.672 L 135.44 -7.808 L 135.28 -6.752 L 134.736 -5.952 L 130.448 -1.008 L 130.2944 -0.7056 L 130.2944 -0.3536 L 135.936 -0.3024"/>
  <path data-glyph="three" fill="none" stroke="black" stroke-linecap="round" stroke-linejoin="round" stroke-width="0.3" d="M 138.256 -9.68 L 143.152 -9.68 L 143.2 -9.376 L 139.824 -5.44 L 139.216 -5.184 L 139.216 -5.392 L 139.568 -5.792 L 140.368 -5.952 L 141.632 -5.84 L 142.944 -5.04 L 143.648 -3.68 L 143.504 -2.016 L 142.64 -0.7056 L 141.28 0 L 139.664 -0.2016 L 138.816 -0.6544 L 138.056 -1.4112"/>
  <path data-glyph="four" fill="none" stroke="black" stroke-linecap="round" stroke-linejoin="round" stroke-width="0.3" d="M 150.608 -0.2528 L 150.56 -9.872 L 149.744 -9.328 L 145.6176 -3.888 L 145.9712 -3.68 L 152.272 -3.728"/>
  <path data-glyph="five" fill="none" stroke="black" stroke-linecap="round" stroke-linejoin="round" stroke-width="0.3" d="M 159.424 -9.728 L 154.496 -9.568 L 154.688 -8.064 L 154.64 -6.752 L 154.544 -5.088 L 155.6 -5.792 L 156.912 -6.256 L 158.112 -6.096 L 159.184 -5.392 L 159.936 -3.888 L 159.776 -2.416 L 159.328 -1.2608 L 158.112 -0.2016 L 156.448 -0.1512 L 155.296 -0.6048 L 154.136 -1.872"/>
  <path data-glyph="six" fill="none" stroke="black" stroke-linecap="round" stroke-linejoin="round" stroke-width="0.3" d="M 167.6 -9.728 L 165.632 -9.52 L 163.76 -8.272 L 162.496 -5.952 L 162.2496 -3.824 L 162.704 -1.712 L 163.968 -0.3024 L 166.032 -0.1008 L 167.44 -1.0576 L 168.144 -2.672 L 167.792 -4.592 L 166.688 -5.744 L 165.232 -6.048 L 164.112 -5.744 L 163.504 -5.088 L 162.608 -4.288"/>
  <path data-glyph="seven" fill="none" stroke="black" stroke-linecap="round" stroke-linejoin="round" stroke-width="0.3" d="M 169.8608 -9.728 L 175.2 -9.68 L 175.152 -9.168 L 171.376 -0.6544 L 171.376 -0.2016"/>
  <path data-glyph="eight" fill="none" stroke="black" stroke-linecap="round" stroke-linejoin="round" stroke-width="0.3" d="M 180.032 -9.936 L 178.672 -9.632 L 177.824 -8.512 L 177.76 -7.456 L 178.72 -6.448 L 181.792 -4.736 L 182.656 -3.824 L 182.96 -2.416 L 182.56 -1.2608 L 181.6 -0.3024 L 180.192 0.0504 L 179.024 -0.2016 L 177.92 -0.9584 L 177.216 -2.064 L 177.264 -3.328 L 178.128 -4.48 L 181.44 -6.448 L 182.4 -7.504 L 182.4 -8.72 L 181.648 -9.52 L 181.088 -9.776 L 180.032 -9.936"/>
  <path data-glyph="nine" fill="none" stroke="black" stroke-linecap="round" stroke-linejoin="round" stroke-width="0.3" d="M 185.728 -0.2528 L 186.976 -0.2528 L 188.64 -1.008 L 189.952 -2.272 L 190.72 -3.776 L 190.96 -4.944 L 191.072 -6.304 L 190.864 -8.016 L 190.16 -9.12 L 189.2 -9.824 L 187.888 -9.984 L 186.528 -9.376 L 185.52 -8.112 L 185.2704 -6.448 L 185.776 -5.136 L 186.88 -4.08 L 188.352 -3.984 L 189.648 -4.432 L 190.304 -5.296 L 190.96 -6.496"/>
  <path data-glyph="A" fill="none" stroke="black" stroke-linecap="round" stroke-linejoin="round" stroke-width="0.3" d="M 10.688 12.224 L 9.12 11.616 L 6.704 11.52 L 4.992 11.616 L 3.376 12.112 L 2.224 12.768 L 1.5616 13.536 L 1.1088 14.488 L 1.2096 15.2448 L 1.512 15.7472 L 2.416 16 L 3.424 15.2448 L 4.032 13.84 L 6.8 5.616 L 7.36 5.616 L 10.784 15.6464 L 11.136 15.7984"/>
  <path data-glyph="O" fill="none" stroke="black" stroke-linecap="round" stroke-linejoin="round" stroke-width="0.3" d="M 19.456 8.8 L 19.096 10.512 L 19.1456 12.112 L 20.048 13.776 L 21.408 15.1936 L 23.328 15.8488 L 25.296 15.6464 L 26.656 14.8416 L 27.872 13.232 L 28.272 11.408 L 28.224 9.6 L 27.76 7.888 L 27.152 6.576 L 26.256 5.824 L 24.944 5.36 L 23.536 5.568 L 22.176 6.576 L 21.168 8.144 L 20.816 9.744 L 20.864 11.312 L 21.216 12.528"/>
  <path data-glyph="Q" fill="none" stroke="black" stroke-linecap="round" stroke-linejoin="round" stroke-width="0.3" d="M 36.928 8.384 L 36.7296 11.104 L 37.328 13.28 L 38.592 14.7392 L 40 15.6464 L 42.08 15.8488 L 43.792 15.3456 L 45.248 13.888 L 45.904 12.272 L 46.16 9.696 L 45.456 7.632 L 44.288 6.176 L 43.136 5.52 L 41.616 5.408 L 40.16 5.968 L 38.944 7.424 L 38.336 8.944 L 38.336 10.912 L 38.944 12.576"/>
  <path data-glyph="Q" fill="none" stroke="black" stroke-linecap="round" stroke-linejoin="round" stroke-width="0.3" d="M 42.08 13.12 L 45.152 17.664"/>
  <path data-glyph="g" fill="none" stroke="black" stroke-linecap="round" stroke-linejoin="round" stroke-width="0.3" d="M 59.76 10.4 L 58.4 9.296 L 56.784 9.088 L 55.424 9.808 L 54.472 11.168 L 54.32 13.024 L 54.768 14.6384 L 55.536 15.5456 L 56.688 15.8488 L 57.648 15.5456 L 58.56 14.8416 L 59.264 13.728 L 59.76 12.48 L 59.76 9.152 L 59.808 16.1008 L 59.52 17.16 L 58.8 18.32 L 57.696 19.024 L 56.64 19.12 L 55.776 18.928 L 54.72 18.528"/>
  <path data-glyph="j" fill="none" stroke="black" stroke-linecap="round" stroke-linejoin="round" stroke-width="0.3" d="M 62.528 8.992 L 62.528 16.9584 L 62.0784 17.76 L 61.424 18.528"/>
  <path data-glyph="j" fill="none" stroke="black" stroke-linecap="round" stroke-linejoin="round" stroke-width="0.3" d="M 62.3296 6.064 L 62.384 6.784 L 62.784 6.672 L 62.832 6.064 L 62.3296 6.064"/>
  <path data-glyph="p" fill="none" stroke="black" stroke-linecap="round" stroke-linejoin="round" stroke-width="0.3" d="M 65.16 9.248 L 65.456 13.888 L 65.616 18.72 L 65.1104 19.024 L 65.456 12.928 L 65.664 11.168 L 67.28 9.44 L 68.896 9.088 L 70.208 9.808 L 70.96 11.76 L 70.656 13.728 L 69.904 15.1936 L 68.544 15.7472 L 67.072 15.7472 L 65.408 14.7392"/>
  <path data-glyph="q" fill="none" stroke="black" stroke-linecap="round" stroke-linejoin="round" stroke-width="0.3" d="M 78.224 9.296 L 78.224 11.92 L 77.712 14.08 L 75.952 15.7984 L 73.984 15.5968 L 72.6736 13.28 L 73.28 10.56 L 74.848 9.088 L 76.704 9.088 L 78.112 10.304 L 78.272 19.072"/>
  <path data-glyph="eacute" fill="none" stroke="black" stroke-linecap="round" stroke-linejoin="round" stroke-width="0.3" d="M 86.184 12.016 L 88.096 12.528 L 90.112 12.672 L 91.424 12.272 L 92.288 11.168 L 92.08 10.256 L 91.328 9.344 L 89.76 8.992 L 88.448 9.44 L 87.552 10.656 L 87.088 11.616 L 87.088 13.184 L 87.488 14.488 L 88.8 15.6464 L 89.968 15.8992 L 91.072 15.7984 L 92.288 14.992"/>
  <path data-glyph="eacute" fill="none" stroke="black" stroke-linecap="round" stroke-linejoin="round" stroke-width="0.3" d="M 91.584 3.712 L 91.488 4.32 L 91.184 5.072 L 90.832 5.632 L 90.48 6.08"/>
  <path data-glyph="Aring" fill="none" stroke="black" stroke-linecap="round" stroke-linejoin="round" stroke-width="0.3" d="M 109.68 12.224 L 108.112 11.616 L 105.696 11.52 L 103.984 11.616 L 102.368 12.112 L 101.216 12.768 L 100.5536 13.536 L 100.1008 14.488 L 100.2016 15.2448 L 100.504 15.7472 L 101.408 16 L 102.416 15.2448 L 103.024 13.84 L 105.792 5.616 L 106.352 5.616 L 109.776 15.6464 L 110.128 15.7984"/>
  <path data-glyph="Aring" fill="none" stroke="black" stroke-linecap="round" stroke-linejoin="round" stroke-width="0.3" d="M 104.528 0.224 L 104.416 0.736 L 104.432 1.232 L 104.704 1.728 L 105.12 2.144 L 105.696 2.352 L 106.272 2.288 L 106.688 2.048 L 107.056 1.568 L 107.168 1.024 L 107.152 0.464 L 107.024 -0.0416 L 106.832 -0.4352 L 106.56 -0.6624 L 106.176 -0.7984 L 105.744 -0.7376 L 105.344 -0.4352 L 105.04 0.032 L 104.928 0.512 L 104.944 0.992 L 105.056 1.344"/>
  <path data-glyph="at" fill="none" stroke="black" stroke-linecap="round" stroke-linejoin="round" stroke-width="0.3" d="M 126.608 10.56 L 124.992 9.552 L 123.488 9.552 L 121.968 10.56 L 121.408 11.968 L 121.312 13.28 L 121.616 14.488 L 122.576 15.496 L 123.888 15.8488 L 125.248 15.1424 L 126.048 13.888 L 126.512 12.768 L 126.56 9.552 L 126.448 14.192 L 126.752 15.2448 L 127.456 15.7472 L 128.272 15.7984 L 129.28 15.2448 L 129.936 14.24 L 130.176 13.024 L 130.128 11.36 L 129.936 10.256 L 129.376 8.992 L 128.576 7.888 L 127.456 6.976 L 125.552 6.224 L 123.776 6.128 L 121.616 6.784 L 119.744 8.288 L 118.64 9.952 L 118.088 11.968 L 118.1376 13.984 L 118.496 15.5456 L 119.504 17.2096 L 120.96 18.528 L 122.88 19.072 L 124.592 19.024 L 126 18.528 L 127.008 17.872"/>
  <path data-glyph="ampersand" fill="none" stroke="black" stroke-linecap="round" stroke-linejoin="round" stroke-width="0.3" d="M 142.688 6.32 L 141.84 5.824 L 140.928 5.616 L 139.824 5.968 L 139.056 6.72 L 139.008 7.424 L 139.216 8.496 L 139.92 9.248 L 140.576 9.648 L 141.424 9.808 L 141.68 9.648 L 141.488 9.504 L 140.464 9.6 L 139.52 10.208 L 138.56 11.312 L 138.2544 12.768 L 138.5056 14.288 L 139.36 15.1936 L 140.928 15.8992 L 142.592 15.6464 L 143.904 14.7392 L 144.4 13.584 L 144.352 12.768 L 144.256 12.016 L 143.792 11.568 L 142.848 11.36 L 142.192 11.712 L 143.744 11.408 L 145.152 11.456 L 146.512 11.104 L 147.376 10.352 L 147.424 9.088 L 147.12 8.192 L 146.368 7.68 L 145.568 7.328"/>
  <path data-glyph="f" fill="none" stroke="black" stroke-linecap="round" stroke-linejoin="round" stroke-width="0.3" d="M 154.8336 17.664 L 155.744 16.6048 L 156.048 16.0504 L 155.888 7.28 L 156.192 6.176 L 156.704 5.568 L 157.248 5.36 L 157.712 5.408 L 158.512 5.824"/>
  <path data-glyph="f" fill="none" stroke="black" stroke-linecap="round" stroke-linejoin="round" stroke-width="0.3" d="M 154.5312 9.2 L 158.112 9.2"/>
  <path data-glyph="i" fill="none" stroke="black" stroke-linecap="round" stroke-linejoin="round" stroke-width="0.3" d="M 159.936 8.992 L 159.936 15.8488"/>
  <path data-glyph="i" fill="none" stroke="black" stroke-linecap="round" stroke-linejoin="round" stroke-width="0.3" d="M 159.576 5.92 L 159.576 6.576 L 160.08 6.624 L 160.032 5.92 L 159.576 5.92"/>
</svg>
